<svg width="1440" height="314" viewBox="0 0 1440 314" fill="none" xmlns="http://www.w3.org/2000/svg">
<rect y="0.531494" width="1440" height="312.937" fill="#4F4F4F" fill-opacity="0.6"/>
<path d="M180.032 138.88C178.208 135.52 175.568 132.976 172.112 131.248C168.752 129.424 164.768 128.512 160.16 128.512C152.192 128.512 145.808 131.152 141.008 136.432C136.208 141.616 133.808 148.576 133.808 157.312C133.808 166.624 136.304 173.92 141.296 179.2C146.384 184.384 153.344 186.976 162.176 186.976C168.224 186.976 173.312 185.44 177.44 182.368C181.664 179.296 184.736 174.88 186.656 169.12H155.408V150.976H208.976V173.872C207.152 180.016 204.032 185.728 199.616 191.008C195.296 196.288 189.776 200.56 183.056 203.824C176.336 207.088 168.752 208.72 160.304 208.72C150.32 208.72 141.392 206.56 133.52 202.24C125.744 197.824 119.648 191.728 115.232 183.952C110.912 176.176 108.752 167.296 108.752 157.312C108.752 147.328 110.912 138.448 115.232 130.672C119.648 122.8 125.744 116.704 133.52 112.384C141.296 107.968 150.176 105.76 160.16 105.76C172.256 105.76 182.432 108.688 190.688 114.544C199.04 120.4 204.56 128.512 207.248 138.88H180.032ZM217.72 167.68C217.72 159.424 219.256 152.176 222.328 145.936C225.496 139.696 229.768 134.896 235.144 131.536C240.52 128.176 246.52 126.496 253.144 126.496C258.808 126.496 263.752 127.648 267.976 129.952C272.296 132.256 275.608 135.28 277.912 139.024V127.648H302.536V208H277.912V196.624C275.512 200.368 272.152 203.392 267.832 205.696C263.608 208 258.664 209.152 253 209.152C246.472 209.152 240.52 207.472 235.144 204.112C229.768 200.656 225.496 195.808 222.328 189.568C219.256 183.232 217.72 175.936 217.72 167.68ZM277.912 167.824C277.912 161.68 276.184 156.832 272.728 153.28C269.368 149.728 265.24 147.952 260.344 147.952C255.448 147.952 251.272 149.728 247.816 153.28C244.456 156.736 242.776 161.536 242.776 167.68C242.776 173.824 244.456 178.72 247.816 182.368C251.272 185.92 255.448 187.696 260.344 187.696C265.24 187.696 269.368 185.92 272.728 182.368C276.184 178.816 277.912 173.968 277.912 167.824ZM344.974 141.04C347.854 136.624 351.454 133.168 355.774 130.672C360.094 128.08 364.894 126.784 370.174 126.784V152.848H363.406C357.262 152.848 352.654 154.192 349.582 156.88C346.51 159.472 344.974 164.08 344.974 170.704V208H320.35V127.648H344.974V141.04ZM406.568 101.44V208H381.944V101.44H406.568ZM436.796 119.296C432.476 119.296 428.924 118.048 426.14 115.552C423.452 112.96 422.108 109.792 422.108 106.048C422.108 102.208 423.452 99.04 426.14 96.544C428.924 93.952 432.476 92.656 436.796 92.656C441.02 92.656 444.476 93.952 447.164 96.544C449.948 99.04 451.34 102.208 451.34 106.048C451.34 109.792 449.948 112.96 447.164 115.552C444.476 118.048 441.02 119.296 436.796 119.296ZM449.036 127.648V208H424.412V127.648H449.036ZM461.985 167.824C461.985 159.472 463.665 152.176 467.025 145.936C470.481 139.696 475.233 134.896 481.281 131.536C487.425 128.176 494.433 126.496 502.305 126.496C512.385 126.496 520.785 129.136 527.505 134.416C534.321 139.696 538.785 147.136 540.897 156.736H514.689C512.481 150.592 508.209 147.52 501.873 147.52C497.361 147.52 493.761 149.296 491.073 152.848C488.385 156.304 487.041 161.296 487.041 167.824C487.041 174.352 488.385 179.392 491.073 182.944C493.761 186.4 497.361 188.128 501.873 188.128C508.209 188.128 512.481 185.056 514.689 178.912H540.897C538.785 188.32 534.321 195.712 527.505 201.088C520.689 206.464 512.289 209.152 502.305 209.152C494.433 209.152 487.425 207.472 481.281 204.112C475.233 200.752 470.481 195.952 467.025 189.712C463.665 183.472 461.985 176.176 461.985 167.824Z" fill="white"/>
</svg>
