<svg width="1440" height="313" viewBox="0 0 1440 313" fill="none" xmlns="http://www.w3.org/2000/svg">
<rect width="1440" height="312.937" fill="#95D387"/>
<path d="M174.128 155.629C179.984 156.877 184.688 159.805 188.24 164.413C191.792 168.925 193.568 174.109 193.568 179.965C193.568 188.413 190.592 195.133 184.64 200.125C178.784 205.021 170.576 207.469 160.016 207.469H112.928V106.381H158.432C168.704 106.381 176.72 108.733 182.48 113.436C188.336 118.141 191.264 124.525 191.264 132.589C191.264 138.541 189.68 143.485 186.512 147.421C183.44 151.357 179.312 154.093 174.128 155.629ZM137.552 147.277H153.68C157.712 147.277 160.784 146.413 162.896 144.685C165.104 142.861 166.208 140.221 166.208 136.765C166.208 133.309 165.104 130.669 162.896 128.845C160.784 127.021 157.712 126.109 153.68 126.109H137.552V147.277ZM155.696 187.597C159.824 187.597 162.992 186.685 165.2 184.861C167.504 182.941 168.656 180.205 168.656 176.653C168.656 173.101 167.456 170.317 165.056 168.301C162.752 166.285 159.536 165.277 155.408 165.277H137.552V187.597H155.696ZM283.594 165.997C283.594 168.301 283.45 170.701 283.162 173.197H227.434C227.818 178.189 229.402 182.029 232.186 184.717C235.066 187.309 238.57 188.605 242.698 188.605C248.842 188.605 253.114 186.013 255.514 180.829H281.722C280.378 186.109 277.93 190.861 274.378 195.085C270.922 199.309 266.554 202.621 261.274 205.021C255.994 207.421 250.09 208.621 243.562 208.621C235.69 208.621 228.682 206.941 222.538 203.581C216.394 200.221 211.594 195.421 208.138 189.181C204.682 182.941 202.954 175.645 202.954 167.293C202.954 158.941 204.634 151.645 207.994 145.405C211.45 139.165 216.25 134.365 222.394 131.005C228.538 127.645 235.594 125.964 243.562 125.964C251.338 125.964 258.25 127.597 264.298 130.861C270.346 134.125 275.05 138.781 278.41 144.829C281.866 150.877 283.594 157.933 283.594 165.997ZM258.394 159.517C258.394 155.293 256.954 151.933 254.074 149.437C251.194 146.941 247.594 145.693 243.274 145.693C239.146 145.693 235.642 146.893 232.762 149.293C229.978 151.693 228.25 155.101 227.578 159.517H258.394ZM345.544 126.253C354.952 126.253 362.44 129.325 368.008 135.469C373.672 141.517 376.504 149.869 376.504 160.525V207.469H352.024V163.837C352.024 158.461 350.632 154.285 347.848 151.309C345.064 148.333 341.32 146.845 336.616 146.845C331.912 146.845 328.168 148.333 325.384 151.309C322.6 154.285 321.208 158.461 321.208 163.837V207.469H296.584V127.117H321.208V137.773C323.704 134.221 327.064 131.437 331.288 129.42C335.512 127.309 340.264 126.253 345.544 126.253ZM469.359 165.997C469.359 168.301 469.216 170.701 468.928 173.197H413.2C413.584 178.189 415.168 182.029 417.952 184.717C420.832 187.309 424.336 188.605 428.464 188.605C434.608 188.605 438.88 186.013 441.28 180.829H467.488C466.144 186.109 463.696 190.861 460.144 195.085C456.688 199.309 452.32 202.621 447.04 205.021C441.76 207.421 435.856 208.621 429.328 208.621C421.456 208.621 414.448 206.941 408.304 203.581C402.16 200.221 397.36 195.421 393.904 189.181C390.448 182.941 388.72 175.645 388.72 167.293C388.72 158.941 390.4 151.645 393.76 145.405C397.216 139.165 402.016 134.365 408.16 131.005C414.304 127.645 421.36 125.964 429.328 125.964C437.104 125.964 444.016 127.597 450.064 130.861C456.112 134.125 460.816 138.781 464.176 144.829C467.632 150.877 469.359 157.933 469.359 165.997ZM444.16 159.517C444.16 155.293 442.72 151.933 439.84 149.437C436.96 146.941 433.36 145.693 429.04 145.693C424.912 145.693 421.408 146.893 418.528 149.293C415.744 151.693 414.016 155.101 413.344 159.517H444.16ZM522.67 147.565H509.422V207.469H484.798V147.565H475.87V127.117H484.798V124.813C484.798 114.925 487.63 107.437 493.294 102.349C498.958 97.1645 507.262 94.5725 518.206 94.5725C520.03 94.5725 521.374 94.6205 522.238 94.7165V115.597C517.534 115.309 514.222 115.981 512.302 117.613C510.382 119.245 509.422 122.172 509.422 126.397V127.117H522.67V147.565ZM546.625 118.764C542.305 118.764 538.753 117.516 535.969 115.021C533.281 112.429 531.937 109.261 531.937 105.517C531.937 101.677 533.281 98.5085 535.969 96.0125C538.753 93.4205 542.305 92.1245 546.625 92.1245C550.849 92.1245 554.305 93.4205 556.993 96.0125C559.777 98.5085 561.169 101.677 561.169 105.517C561.169 109.261 559.777 112.429 556.993 115.021C554.305 117.516 550.849 118.764 546.625 118.764ZM558.865 127.117V207.469H534.241V127.117H558.865ZM621.493 186.589V207.469H608.965C600.037 207.469 593.077 205.309 588.085 200.989C583.093 196.573 580.597 189.421 580.597 179.533V147.565H570.805V127.117H580.597V107.533H605.221V127.117H621.349V147.565H605.221V179.821C605.221 182.221 605.797 183.949 606.949 185.005C608.101 186.061 610.021 186.589 612.709 186.589H621.493ZM667.897 208.621C660.889 208.621 654.649 207.421 649.177 205.021C643.705 202.621 639.385 199.357 636.217 195.229C633.049 191.005 631.273 186.301 630.889 181.117H655.225C655.513 183.901 656.809 186.157 659.113 187.885C661.417 189.613 664.249 190.477 667.609 190.477C670.681 190.477 673.033 189.901 674.665 188.749C676.393 187.501 677.257 185.917 677.257 183.997C677.257 181.693 676.057 180.013 673.657 178.957C671.257 177.805 667.369 176.557 661.993 175.213C656.233 173.869 651.433 172.477 647.593 171.037C643.753 169.501 640.441 167.149 637.657 163.981C634.873 160.717 633.481 156.349 633.481 150.877C633.481 146.269 634.729 142.093 637.225 138.349C639.817 134.509 643.561 131.484 648.457 129.276C653.449 127.068 659.353 125.964 666.169 125.964C676.249 125.964 684.169 128.461 689.929 133.453C695.785 138.445 699.145 145.069 700.009 153.325H677.257C676.873 150.541 675.625 148.333 673.513 146.701C671.497 145.069 668.809 144.253 665.449 144.253C662.569 144.253 660.361 144.829 658.825 145.981C657.289 147.037 656.521 148.525 656.521 150.445C656.521 152.749 657.721 154.477 660.121 155.629C662.617 156.781 666.457 157.933 671.641 159.085C677.593 160.621 682.441 162.157 686.185 163.693C689.929 165.133 693.193 167.533 695.977 170.893C698.857 174.157 700.345 178.573 700.441 184.141C700.441 188.845 699.097 193.069 696.409 196.813C693.817 200.461 690.025 203.341 685.033 205.453C680.137 207.565 674.425 208.621 667.897 208.621Z" fill="white"/>
</svg>
