<svg width="204" height="208" viewBox="0 0 204 208" fill="none" xmlns="http://www.w3.org/2000/svg">
<ellipse cx="102.015" cy="104.033" rx="101.985" ry="103.518" fill="#A2C2FD"/>
<path d="M75.9126 151.874C75.9126 150.084 76.3124 148.485 77.112 147.077C77.9289 145.651 79.0327 144.548 80.4233 143.765C81.8313 142.966 83.4044 142.566 85.1427 142.566C87.1764 142.566 88.9581 143.087 90.4878 144.13C92.0174 145.173 93.0865 146.616 93.6948 148.459H89.497C89.0798 147.589 88.4888 146.938 87.724 146.503C86.9765 146.068 86.1074 145.851 85.1166 145.851C84.0563 145.851 83.1089 146.103 82.2746 146.607C81.4576 147.094 80.8144 147.789 80.3451 148.693C79.8932 149.597 79.6672 150.657 79.6672 151.874C79.6672 153.074 79.8932 154.134 80.3451 155.055C80.8144 155.959 81.4576 156.663 82.2746 157.167C83.1089 157.654 84.0563 157.897 85.1166 157.897C86.1074 157.897 86.9765 157.68 87.724 157.245C88.4888 156.793 89.0798 156.133 89.497 155.264H93.6948C93.0865 157.124 92.0174 158.575 90.4878 159.618C88.9755 160.644 87.1938 161.156 85.1427 161.156C83.4044 161.156 81.8313 160.765 80.4233 159.983C79.0327 159.184 77.9289 158.08 77.112 156.672C76.3124 155.264 75.9126 153.665 75.9126 151.874ZM103.227 161.235C101.836 161.235 100.585 160.93 99.4722 160.322C98.3597 159.696 97.4819 158.819 96.8388 157.689C96.213 156.559 95.9001 155.255 95.9001 153.778C95.9001 152.3 96.2217 150.996 96.8648 149.867C97.5254 148.737 98.4206 147.868 99.5504 147.259C100.68 146.633 101.941 146.321 103.331 146.321C104.722 146.321 105.982 146.633 107.112 147.259C108.242 147.868 109.128 148.737 109.771 149.867C110.432 150.996 110.762 152.3 110.762 153.778C110.762 155.255 110.423 156.559 109.745 157.689C109.085 158.819 108.181 159.696 107.034 160.322C105.904 160.93 104.635 161.235 103.227 161.235ZM103.227 158.054C103.887 158.054 104.504 157.897 105.078 157.584C105.669 157.254 106.138 156.767 106.486 156.124C106.834 155.481 107.007 154.699 107.007 153.778C107.007 152.404 106.642 151.353 105.912 150.623C105.2 149.875 104.322 149.502 103.279 149.502C102.236 149.502 101.358 149.875 100.646 150.623C99.9502 151.353 99.6026 152.404 99.6026 153.778C99.6026 155.151 99.9415 156.211 100.619 156.959C101.315 157.689 102.184 158.054 103.227 158.054ZM119.854 161.235C118.463 161.235 117.212 160.93 116.099 160.322C114.987 159.696 114.109 158.819 113.466 157.689C112.84 156.559 112.527 155.255 112.527 153.778C112.527 152.3 112.849 150.996 113.492 149.867C114.152 148.737 115.048 147.868 116.177 147.259C117.307 146.633 118.568 146.321 119.958 146.321C121.349 146.321 122.609 146.633 123.739 147.259C124.869 147.868 125.755 148.737 126.398 149.867C127.059 150.996 127.389 152.3 127.389 153.778C127.389 155.255 127.05 156.559 126.372 157.689C125.712 158.819 124.808 159.696 123.661 160.322C122.531 160.93 121.262 161.235 119.854 161.235ZM119.854 158.054C120.514 158.054 121.131 157.897 121.705 157.584C122.296 157.254 122.765 156.767 123.113 156.124C123.461 155.481 123.635 154.699 123.635 153.778C123.635 152.404 123.27 151.353 122.539 150.623C121.827 149.875 120.949 149.502 119.906 149.502C118.863 149.502 117.985 149.875 117.273 150.623C116.577 151.353 116.23 152.404 116.23 153.778C116.23 155.151 116.569 156.211 117.247 156.959C117.942 157.689 118.811 158.054 119.854 158.054ZM133.717 141.705V161H130.067V141.705H133.717Z" fill="white"/>
<g clip-path="url(#clip0_306_16907)">
<path d="M95.0949 44.3334C95.0949 44.3334 95.0949 39.5715 99.8568 39.5715C104.619 39.5715 104.619 44.3334 104.619 44.3334V49.0953C104.619 49.0953 104.619 53.8571 99.8568 53.8571C95.0949 53.8571 95.0949 49.0953 95.0949 49.0953V44.3334ZM137.952 77.6665C137.952 77.6665 142.714 77.6665 142.714 82.4283C142.714 87.1902 137.952 87.1902 137.952 87.1902H133.19C133.19 87.1902 128.428 87.1902 128.428 82.4283C128.428 77.6665 133.19 77.6665 133.19 77.6665H137.952ZM66.5237 77.6665C66.5237 77.6665 71.2856 77.6665 71.2856 82.4283C71.2856 87.1902 66.5237 87.1902 66.5237 87.1902H61.7619C61.7619 87.1902 57 87.1902 57 82.4283C57 77.6665 61.7619 77.6665 61.7619 77.6665H66.5237ZM78.7165 56.9357C78.7165 56.9357 82.0831 60.3023 78.7165 63.669C75.3499 67.0356 71.9832 63.669 71.9832 63.669L68.6142 60.3047C68.6142 60.3047 65.2476 56.9381 68.6142 53.569C71.9832 50.2024 75.3499 53.569 75.3499 53.569L78.7165 56.9357ZM128.716 106.935C128.716 106.935 132.083 110.302 128.716 113.669C125.349 117.035 121.983 113.669 121.983 113.669L118.616 110.302C118.616 110.302 115.25 106.935 118.616 103.569C121.983 100.202 125.349 103.569 125.349 103.569L128.716 106.935ZM127.733 63.669C127.733 63.669 124.366 67.0356 121 63.669C117.633 60.3023 121 56.9357 121 56.9357L124.366 53.569C124.366 53.569 127.733 50.2024 131.099 53.569C134.466 56.9357 131.099 60.3023 131.099 60.3023L127.733 63.669ZM77.7332 113.669C77.7332 113.669 74.3665 117.035 70.9999 113.669C67.6333 110.302 70.9999 106.935 70.9999 106.935L74.3665 103.569C74.3665 103.569 77.7332 100.202 81.0998 103.569C84.4664 106.935 81.0998 110.302 81.0998 110.302L77.7332 113.669ZM95.0949 115.761C95.0949 115.761 95.0949 111 99.8568 111C104.619 111 104.619 115.761 104.619 115.761V120.523C104.619 120.523 104.619 125.285 99.8568 125.285C95.0949 125.285 95.0949 120.523 95.0949 120.523V115.761Z" fill="#EB5757"/>
<path d="M99.8568 106.238C113.006 106.238 123.666 95.5778 123.666 82.4282C123.666 69.2787 113.006 58.6189 99.8568 58.6189C86.7072 58.6189 76.0474 69.2787 76.0474 82.4282C76.0474 95.5778 86.7072 106.238 99.8568 106.238Z" fill="#EB5757"/>
</g>
<g clip-path="url(#clip1_306_16907)">
<path d="M106.047 70.095L121.714 54.4285C122.155 53.9876 122.504 53.4642 122.743 52.8882C122.982 52.3122 123.104 51.6948 123.104 51.0714C123.104 50.4479 122.982 49.8305 122.743 49.2545C122.504 48.6785 122.155 48.1551 121.714 47.7143C121.273 47.2734 120.75 46.9237 120.174 46.6851C119.598 46.4465 118.98 46.3237 118.357 46.3237C117.733 46.3237 117.116 46.4465 116.54 46.6851C115.964 46.9237 115.44 47.2734 115 47.7143L106.047 56.6666V44.3333C106.047 41.7143 103.904 39.5715 101.285 39.5715C98.6664 39.5715 94.1426 39.0952 94.1426 41.7143L96.5235 56.6666L87.5712 47.7143C86.6809 46.8239 85.4733 46.3237 84.2141 46.3237C82.9549 46.3237 81.7473 46.8239 80.857 47.7143C79.9666 48.6046 79.4664 49.8122 79.4664 51.0714C79.4664 52.3305 79.9666 53.5381 80.857 54.4285L96.5235 70.095V77.6664H88.9522L73.2856 61.9999C72.8448 61.559 72.3214 61.2093 71.7454 60.9707C71.1693 60.7321 70.552 60.6093 69.9285 60.6093C69.305 60.6093 68.6877 60.7321 68.1116 60.9707C67.5356 61.2093 67.0122 61.559 66.5714 61.9999C66.1305 62.4407 65.7808 62.9641 65.5422 63.5401C65.3036 64.1161 65.1808 64.7335 65.1808 65.357C65.1808 65.9805 65.3036 66.5978 65.5422 67.1738C65.7808 67.7499 66.1305 68.2732 66.5714 68.7141L75.5237 77.6664H63.1905C60.5714 77.6664 58.4286 79.8093 58.4286 82.4283C58.4286 85.0473 60.5714 87.1902 63.1905 87.1902H75.5237L66.5714 96.1425C65.681 97.0328 65.1808 98.2404 65.1808 99.4996C65.1808 100.759 65.681 101.966 66.5714 102.857C67.4617 103.747 68.6693 104.247 69.9285 104.247C71.1877 104.247 72.3953 103.747 73.2856 102.857L88.9522 87.1902H96.5235V94.7615L80.857 110.428C80.4161 110.869 80.0664 111.392 79.8278 111.968C79.5892 112.544 79.4664 113.162 79.4664 113.785C79.4664 114.409 79.5892 115.026 79.8278 115.602C80.0664 116.178 80.4161 116.701 80.857 117.142C81.2978 117.583 81.8212 117.933 82.3972 118.171C82.9733 118.41 83.5906 118.533 84.2141 118.533C84.8376 118.533 85.4549 118.41 86.031 118.171C86.607 117.933 87.1304 117.583 87.5712 117.142L96.5235 108.19L93.4283 123.142C93.4283 125.761 98.6664 125.285 101.285 125.285C103.904 125.285 106.047 123.142 106.047 120.523V108.19L115 117.142C115.44 117.583 115.964 117.933 116.54 118.171C117.116 118.41 117.733 118.533 118.357 118.533C118.98 118.533 119.598 118.41 120.174 118.171C120.75 117.933 121.273 117.583 121.714 117.142C122.155 116.701 122.504 116.178 122.743 115.602C122.982 115.026 123.104 114.409 123.104 113.785C123.104 113.162 122.982 112.544 122.743 111.968C122.504 111.392 122.155 110.869 121.714 110.428L106.047 94.7615V87.1902H113.619L129.285 102.857C129.726 103.298 130.249 103.647 130.825 103.886C131.401 104.124 132.019 104.247 132.642 104.247C133.266 104.247 133.883 104.124 134.459 103.886C135.035 103.647 135.559 103.298 135.999 102.857C136.44 102.416 136.79 101.892 137.029 101.316C137.267 100.74 137.39 100.123 137.39 99.4996C137.39 98.8761 137.267 98.2587 137.029 97.6827C136.79 97.1067 136.44 96.5833 135.999 96.1425L127.047 87.1902H139.38C141.999 87.1902 144.142 85.0473 144.142 82.4283C144.142 79.8093 141.999 77.6664 139.38 77.6664H106.047V70.095Z" fill="white"/>
<path d="M147.186 34.8865C139.841 34.8865 133.887 40.841 133.887 48.1857C133.887 55.5304 139.841 61.4849 147.186 61.4849C154.531 61.4849 160.485 55.5304 160.485 48.1857C160.485 40.841 154.531 34.8865 147.186 34.8865ZM149.402 56.941H144.969V46.3016H149.402V56.941ZM147.186 43.8634C146.598 43.8634 146.034 43.6299 145.618 43.2142C145.203 42.7985 144.969 42.2348 144.969 41.6469C144.969 41.059 145.203 40.4953 145.618 40.0796C146.034 39.6639 146.598 39.4304 147.186 39.4304C147.774 39.4304 148.337 39.6639 148.753 40.0796C149.169 40.4953 149.402 41.059 149.402 41.6469C149.402 42.2348 149.169 42.7985 148.753 43.2142C148.337 43.6299 147.774 43.8634 147.186 43.8634Z" fill="white"/>
</g>
<defs>
<clipPath id="clip0_306_16907">
<rect width="42.8568" height="85.7136" fill="white" transform="translate(57 39.5715)"/>
</clipPath>
<clipPath id="clip1_306_16907">
<rect width="61.4281" height="114.285" fill="white" transform="translate(99.8568 21)"/>
</clipPath>
</defs>
</svg>
