<svg width="204" height="208" viewBox="0 0 204 208" fill="none" xmlns="http://www.w3.org/2000/svg">
<ellipse cx="101.985" cy="104.033" rx="101.985" ry="103.518" fill="#4864A0" fill-opacity="0.6"/>
<path d="M68.9849 40.8239C69.1779 39.7198 69.6013 38.7336 70.2551 37.8654C70.909 36.9864 71.7129 36.3058 72.6669 35.8234C73.6209 35.3303 74.6339 35.0838 75.7058 35.0838C76.9707 35.0838 78.0104 35.3946 78.8251 36.0163C79.6505 36.6273 80.1489 37.4902 80.3204 38.605H77.7317C77.5602 38.1334 77.2708 37.7743 76.8635 37.5277C76.4562 37.2812 75.9524 37.1579 75.3521 37.1579C74.6875 37.1579 74.0712 37.308 73.503 37.6081C72.9349 37.9083 72.4579 38.337 72.072 38.8944C71.6861 39.4518 71.4289 40.095 71.3003 40.8239C71.2467 41.0811 71.2199 41.3759 71.2199 41.7082C71.2199 42.5872 71.4771 43.2786 71.9916 43.7824C72.5169 44.2754 73.2351 44.522 74.1462 44.522C74.993 44.522 75.7326 44.2915 76.365 43.8306C77.0082 43.3697 77.4852 42.7319 77.7961 41.9172H73.9372L74.2266 40.2129H80.3043L79.9506 42.1745C79.6612 42.957 79.211 43.6805 78.6 44.3451C77.989 45.0097 77.2601 45.5456 76.4133 45.953C75.5665 46.3496 74.6607 46.5479 73.696 46.5479C72.742 46.5479 71.9005 46.3549 71.1716 45.9691C70.4534 45.5832 69.8907 45.0472 69.4834 44.3612C69.0868 43.6644 68.8884 42.8605 68.8884 41.9494C68.8884 41.5849 68.9206 41.2098 68.9849 40.8239ZM81.0854 41.9655C81.2462 41.065 81.5624 40.2665 82.034 39.5697C82.5164 38.873 83.1006 38.337 83.7866 37.9619C84.4727 37.5867 85.1962 37.3991 85.9573 37.3991C86.6218 37.3991 87.1792 37.5331 87.6294 37.8011C88.0904 38.069 88.428 38.4067 88.6424 38.814L88.8675 37.5438H91.1346L89.5589 46.4514H87.2918L87.533 45.149C87.1792 45.5671 86.7183 45.9155 86.1502 46.1942C85.5928 46.4621 84.9818 46.5961 84.3172 46.5961C83.6634 46.5961 83.0845 46.4514 82.5807 46.162C82.0769 45.8619 81.6857 45.4438 81.407 44.9079C81.1283 44.3612 80.9889 43.7288 80.9889 43.0106C80.9889 42.6783 81.0211 42.3299 81.0854 41.9655ZM88.0796 41.9976C88.1225 41.7189 88.144 41.5153 88.144 41.3866C88.144 40.7542 87.9564 40.2611 87.5812 39.9074C87.2168 39.5537 86.7558 39.3768 86.1984 39.3768C85.7804 39.3768 85.3731 39.4786 84.9765 39.6823C84.5906 39.8859 84.2529 40.1861 83.9635 40.5827C83.6741 40.9686 83.4811 41.4295 83.3847 41.9655C83.3525 42.1691 83.3364 42.3621 83.3364 42.5443C83.3364 43.1874 83.5186 43.6966 83.8831 44.0718C84.2475 44.4362 84.7085 44.6184 85.2659 44.6184C85.6839 44.6184 86.0912 44.5166 86.4878 44.3129C86.8845 44.0986 87.2221 43.7931 87.5008 43.3965C87.7902 42.9999 87.9832 42.5336 88.0796 41.9976ZM95.3269 39.1195C95.7128 38.5836 96.163 38.1655 96.6775 37.8654C97.192 37.5653 97.7494 37.4152 98.3497 37.4152L97.9316 39.7788H97.3367C96.6721 39.7788 96.1362 39.9235 95.7288 40.2129C95.3322 40.5023 95.0428 40.9954 94.8606 41.6921L94.0245 46.4514H91.7574L93.3331 37.5438H95.6002L95.3269 39.1195ZM102.631 34.5532L100.525 46.4514H98.258L100.364 34.5532H102.631ZM105.643 36.4826C105.29 36.4826 105.005 36.3808 104.791 36.1771C104.577 35.9735 104.469 35.7162 104.469 35.4053C104.469 34.9766 104.63 34.6121 104.952 34.312C105.284 34.0011 105.67 33.8457 106.11 33.8457C106.453 33.8457 106.731 33.9475 106.946 34.1512C107.16 34.3549 107.267 34.6121 107.267 34.923C107.267 35.3517 107.106 35.7216 106.785 36.0324C106.463 36.3325 106.083 36.4826 105.643 36.4826ZM106.576 37.5438L105 46.4514H102.733L104.309 37.5438H106.576ZM107.433 41.9976C107.594 41.0758 107.921 40.2718 108.414 39.5858C108.907 38.8891 109.518 38.3531 110.247 37.9779C110.987 37.592 111.785 37.3991 112.643 37.3991C113.747 37.3991 114.61 37.6724 115.231 38.2191C115.864 38.7658 116.217 39.5429 116.292 40.5505H113.865C113.8 40.1646 113.634 39.8645 113.366 39.6501C113.098 39.425 112.739 39.3125 112.289 39.3125C111.646 39.3125 111.094 39.5483 110.633 40.0199C110.183 40.4809 109.882 41.1401 109.732 41.9976C109.679 42.2977 109.652 42.555 109.652 42.7694C109.652 43.3804 109.802 43.852 110.102 44.1843C110.402 44.5059 110.82 44.6667 111.356 44.6667C112.257 44.6667 112.921 44.2594 113.35 43.4447H115.778C115.36 44.4094 114.733 45.1758 113.897 45.744C113.071 46.3121 112.117 46.5961 111.035 46.5961C109.909 46.5961 109.009 46.2799 108.334 45.6475C107.669 45.0043 107.337 44.1361 107.337 43.0427C107.337 42.7104 107.369 42.3621 107.433 41.9976ZM69.1457 77.1258V79.1195H83.4558V77.1258H69.1457ZM77.3941 77.9297L75.4486 78.3799C76.6705 82.8015 78.6804 86.1298 82.3624 87.8503C82.684 87.2875 83.3271 86.4514 83.8095 86.0173C80.4008 84.6667 78.3588 81.6117 77.3941 77.9297ZM75.1752 72.8006C75.127 77.1579 75.4164 83.2678 68.8241 86.2102C69.3869 86.6283 69.9818 87.3197 70.2873 87.8503C77.1851 84.522 77.2172 77.7046 77.2976 72.8006H75.1752ZM85.7229 77.0132V78.7015H91.463V77.0132H85.7229ZM85.0315 79.7948V81.4831H91.9132V79.7948H85.0315ZM87.8613 80.5505V86.0655C87.8613 86.2263 87.8131 86.2585 87.6523 86.2585C87.4754 86.2746 86.9931 86.2746 86.5429 86.2585C86.7519 86.7087 86.977 87.4001 87.0574 87.8663C87.9256 87.8663 88.5527 87.8503 89.0511 87.593C89.5496 87.3197 89.6621 86.8855 89.6621 86.0977V80.5505H87.8613ZM85.7711 82.1745C85.5621 83.4929 85.1762 84.9239 84.6617 85.8565C85.0636 86.0334 85.8032 86.371 86.1248 86.6122C86.6393 85.5992 87.1378 83.9914 87.4111 82.5121L85.7711 82.1745ZM89.9355 82.5764C90.2892 83.4447 90.659 84.6184 90.7555 85.3902L92.2669 84.7953C92.1222 84.0557 91.7524 82.9302 91.3343 82.0619L89.9355 82.5764ZM92.9744 77.0615V78.7497H99.0039V77.0615H92.9744ZM92.3794 79.8431V81.5474H99.7596V79.8431H92.3794ZM95.0324 80.6792V86.0816C95.0324 86.2424 94.9842 86.2906 94.8073 86.2906C94.6465 86.2906 94.0999 86.2906 93.6175 86.2746C93.8426 86.7408 94.0677 87.4161 94.132 87.8985C95.0485 87.8985 95.7077 87.8824 96.2223 87.6252C96.7528 87.3518 96.8654 86.9177 96.8654 86.1138V80.6792H95.0324ZM92.9422 82.1745C92.6849 83.5251 92.1865 84.9079 91.5112 85.7922C91.9132 85.9851 92.6528 86.371 92.9904 86.6283C93.6818 85.6153 94.2767 84.0557 94.6144 82.4961L92.9422 82.1745ZM97.2352 82.6568C97.7497 83.8306 98.2642 85.3902 98.425 86.4032L100.049 85.8243C99.84 84.8114 99.3254 83.3 98.7627 82.1423L97.2352 82.6568ZM88.5688 72.8006V76.5309H90.4661V72.8006H88.5688ZM94.1481 72.8006V76.5309H96.0293V72.8006H94.1481ZM85.2244 73.8618V75.5661H99.5345V73.8618H85.2244ZM69.3387 114.392V124.265H76.4615V114.392H69.3387ZM74.3552 116.065V122.576H71.445V116.065H74.3552ZM78.407 112.994V127.882H80.5616V112.994H78.407ZM80.0792 118.605V120.374H82.7161V118.605H80.0792ZM85.3518 115.968V117.656H95.6261V115.968H85.3518ZM83.6796 118.621V120.309H97.1696V118.621H83.6796ZM85.3518 113.154V116.869H87.4742V113.154H85.3518ZM85.2071 121.21V122.818H93.4394V123.654H85.2232V126.484H87.3616V125.165H95.5778V121.21H85.2071ZM85.2232 126.098V127.722H96.012V126.098H85.2232ZM70.9626 155.534V157.865C71.5093 157.849 72.2489 157.817 72.8599 157.817C73.7603 157.817 78.6643 157.817 79.5165 157.817C80.0792 157.817 80.8349 157.849 81.3012 157.865V155.534C80.8349 155.598 80.1596 155.63 79.5165 155.63C78.6321 155.63 74.2105 155.63 72.8599 155.63C72.2971 155.63 71.5575 155.598 70.9626 155.534ZM69.612 163.413V165.873C70.223 165.808 70.9948 165.76 71.6379 165.76C72.6509 165.76 79.8541 165.76 80.8671 165.76C81.3334 165.76 82.0569 165.808 82.6357 165.873V163.413C82.0891 163.461 81.3977 163.509 80.8671 163.509C79.8541 163.509 72.6509 163.509 71.6379 163.509C70.9948 163.509 70.2391 163.445 69.612 163.413ZM88.199 154.232L86.6715 155.856C87.8452 156.659 89.8712 158.412 90.7073 159.312L92.3473 157.64C91.3986 156.659 89.3084 154.987 88.199 154.232ZM86.1731 164.94L87.5397 167.062C89.7908 166.677 91.8649 165.792 93.5049 164.811C96.0936 163.252 98.2321 161.033 99.438 158.846L98.1999 156.595C97.1709 158.766 95.0807 161.21 92.3312 162.85C90.7716 163.766 88.6974 164.586 86.1731 164.94ZM103.12 155.534V157.865C103.667 157.849 104.406 157.817 105.017 157.817C105.918 157.817 110.822 157.817 111.674 157.817C112.237 157.817 112.992 157.849 113.459 157.865V155.534C112.992 155.598 112.317 155.63 111.674 155.63C110.79 155.63 106.368 155.63 105.017 155.63C104.455 155.63 103.715 155.598 103.12 155.534ZM101.769 163.413V165.873C102.38 165.808 103.152 165.76 103.795 165.76C104.808 165.76 112.012 165.76 113.024 165.76C113.491 165.76 114.214 165.808 114.793 165.873V163.413C114.246 163.461 113.555 163.509 113.024 163.509C112.012 163.509 104.808 163.509 103.795 163.509C103.152 163.509 102.396 163.445 101.769 163.413ZM130.936 156.467L129.28 155.438C128.926 155.566 128.38 155.63 127.881 155.63C127.383 155.63 124.006 155.63 123.299 155.63L122.559 157.463H127.978C127.72 158.653 126.788 160.583 125.695 161.837C124.28 163.429 122.495 164.827 119.215 165.824L121.112 167.513C124.135 166.323 126.064 164.844 127.592 162.978C129.055 161.194 129.971 159.055 130.406 157.608C130.534 157.206 130.759 156.772 130.936 156.467ZM125.695 153.91L123.331 153.138C123.186 153.701 122.849 154.441 122.607 154.827C121.82 156.209 120.405 158.283 117.591 160.004L119.392 161.338C121.707 159.763 123.62 157.496 124.714 155.55C124.891 155.212 125.309 154.473 125.695 153.91Z" fill="white"/>
</svg>
