<svg width="1440" height="313" viewBox="0 0 1440 313" fill="none" xmlns="http://www.w3.org/2000/svg">
<rect width="1440" height="312.937" fill="#A2C2FD"/>
<path d="M160.736 208.477C151.232 208.477 142.496 206.269 134.528 201.853C126.656 197.437 120.368 191.293 115.664 183.421C111.056 175.453 108.752 166.525 108.752 156.637C108.752 146.749 111.056 137.869 115.664 129.996C120.368 122.125 126.656 115.981 134.528 111.565C142.496 107.149 151.232 104.941 160.736 104.941C170.24 104.941 178.928 107.149 186.8 111.565C194.768 115.981 201.008 122.125 205.52 129.996C210.128 137.869 212.432 146.749 212.432 156.637C212.432 166.525 210.128 175.453 205.52 183.421C200.912 191.293 194.672 197.437 186.8 201.853C178.928 206.269 170.24 208.477 160.736 208.477ZM160.736 186.013C168.8 186.013 175.232 183.325 180.032 177.949C184.928 172.573 187.376 165.469 187.376 156.637C187.376 147.709 184.928 140.605 180.032 135.324C175.232 129.948 168.8 127.26 160.736 127.26C152.576 127.26 146.048 129.901 141.152 135.181C136.352 140.461 133.952 147.613 133.952 156.637C133.952 165.565 136.352 172.717 141.152 178.093C146.048 183.373 152.576 186.013 160.736 186.013ZM250.755 140.509C253.635 136.093 257.235 132.637 261.555 130.141C265.875 127.549 270.675 126.253 275.955 126.253V152.317H269.187C263.043 152.317 258.435 153.661 255.363 156.349C252.291 158.941 250.755 163.549 250.755 170.173V207.469H226.131V127.117H250.755V140.509ZM300.109 118.764C295.789 118.764 292.237 117.516 289.453 115.021C286.765 112.429 285.421 109.261 285.421 105.517C285.421 101.677 286.765 98.5085 289.453 96.0125C292.237 93.4205 295.789 92.1245 300.109 92.1245C304.333 92.1245 307.789 93.4205 310.477 96.0125C313.261 98.5085 314.653 101.677 314.653 105.517C314.653 109.261 313.261 112.429 310.477 115.021C307.789 117.516 304.333 118.764 300.109 118.764ZM312.349 127.117V207.469H287.725V127.117H312.349ZM360.722 125.964C366.386 125.964 371.33 127.116 375.554 129.42C379.874 131.725 383.186 134.749 385.49 138.493V127.117H410.114V207.325C410.114 214.717 408.626 221.389 405.65 227.341C402.77 233.389 398.306 238.189 392.258 241.741C386.306 245.293 378.866 247.069 369.938 247.069C358.034 247.069 348.386 244.237 340.994 238.573C333.602 233.005 329.378 225.421 328.322 215.821H352.658C353.426 218.893 355.25 221.293 358.13 223.021C361.01 224.845 364.562 225.757 368.786 225.757C373.874 225.757 377.906 224.269 380.882 221.293C383.954 218.413 385.49 213.757 385.49 207.325V195.949C383.09 199.693 379.778 202.765 375.554 205.165C371.33 207.469 366.386 208.621 360.722 208.621C354.098 208.621 348.098 206.941 342.722 203.581C337.346 200.125 333.074 195.277 329.906 189.037C326.834 182.701 325.298 175.405 325.298 167.149C325.298 158.893 326.834 151.645 329.906 145.405C333.074 139.165 337.346 134.365 342.722 131.005C348.098 127.645 354.098 125.964 360.722 125.964ZM385.49 167.293C385.49 161.149 383.762 156.301 380.306 152.749C376.946 149.197 372.818 147.421 367.922 147.421C363.026 147.421 358.85 149.197 355.394 152.749C352.034 156.205 350.354 161.005 350.354 167.149C350.354 173.293 352.034 178.189 355.394 181.837C358.85 185.389 363.026 187.165 367.922 187.165C372.818 187.165 376.946 185.389 380.306 181.837C383.762 178.285 385.49 173.437 385.49 167.293ZM440.312 118.764C435.992 118.764 432.44 117.516 429.656 115.021C426.968 112.429 425.624 109.261 425.624 105.517C425.624 101.677 426.968 98.5085 429.656 96.0125C432.44 93.4205 435.992 92.1245 440.312 92.1245C444.536 92.1245 447.992 93.4205 450.68 96.0125C453.464 98.5085 454.856 101.677 454.856 105.517C454.856 109.261 453.464 112.429 450.68 115.021C447.992 117.516 444.536 118.764 440.312 118.764ZM452.552 127.117V207.469H427.928V127.117H452.552ZM519.357 126.253C528.765 126.253 536.253 129.325 541.821 135.469C547.485 141.517 550.317 149.869 550.317 160.525V207.469H525.837V163.837C525.837 158.461 524.445 154.285 521.661 151.309C518.877 148.333 515.133 146.845 510.429 146.845C505.725 146.845 501.981 148.333 499.197 151.309C496.413 154.285 495.021 158.461 495.021 163.837V207.469H470.397V127.117H495.021V137.773C497.517 134.221 500.877 131.437 505.101 129.42C509.325 127.309 514.077 126.253 519.357 126.253Z" fill="white"/>
</svg>
