<svg width="433" height="118" viewBox="0 0 433 118" fill="none" xmlns="http://www.w3.org/2000/svg">
<path d="M72.032 46.88C70.208 43.52 67.568 40.976 64.112 39.248C60.752 37.424 56.768 36.512 52.16 36.512C44.192 36.512 37.808 39.152 33.008 44.432C28.208 49.616 25.808 56.576 25.808 65.312C25.808 74.624 28.304 81.92 33.296 87.2C38.384 92.384 45.344 94.976 54.176 94.976C60.224 94.976 65.312 93.44 69.44 90.368C73.664 87.296 76.736 82.88 78.656 77.12H47.408V58.976H100.976V81.872C99.152 88.016 96.032 93.728 91.616 99.008C87.296 104.288 81.776 108.56 75.056 111.824C68.336 115.088 60.752 116.72 52.304 116.72C42.32 116.72 33.392 114.56 25.52 110.24C17.744 105.824 11.648 99.728 7.232 91.952C2.912 84.176 0.752 75.296 0.752 65.312C0.752 55.328 2.912 46.448 7.232 38.672C11.648 30.8 17.744 24.704 25.52 20.384C33.296 15.968 42.176 13.76 52.16 13.76C64.256 13.76 74.432 16.688 82.688 22.544C91.04 28.4 96.56 36.512 99.248 46.88H72.032ZM109.72 75.68C109.72 67.424 111.256 60.176 114.328 53.936C117.496 47.696 121.768 42.896 127.144 39.536C132.52 36.176 138.52 34.496 145.144 34.496C150.808 34.496 155.752 35.648 159.976 37.952C164.296 40.256 167.608 43.28 169.912 47.024V35.648H194.536V116H169.912V104.624C167.512 108.368 164.152 111.392 159.832 113.696C155.608 116 150.664 117.152 145 117.152C138.472 117.152 132.52 115.472 127.144 112.112C121.768 108.656 117.496 103.808 114.328 97.568C111.256 91.232 109.72 83.936 109.72 75.68ZM169.912 75.824C169.912 69.68 168.184 64.832 164.728 61.28C161.368 57.728 157.24 55.952 152.344 55.952C147.448 55.952 143.272 57.728 139.816 61.28C136.456 64.736 134.776 69.536 134.776 75.68C134.776 81.824 136.456 86.72 139.816 90.368C143.272 93.92 147.448 95.696 152.344 95.696C157.24 95.696 161.368 93.92 164.728 90.368C168.184 86.816 169.912 81.968 169.912 75.824ZM236.974 49.04C239.854 44.624 243.454 41.168 247.774 38.672C252.094 36.08 256.894 34.784 262.174 34.784V60.848H255.406C249.262 60.848 244.654 62.192 241.582 64.88C238.51 67.472 236.974 72.08 236.974 78.704V116H212.35V35.648H236.974V49.04ZM298.568 9.44V116H273.944V9.44H298.568ZM328.796 27.296C324.476 27.296 320.924 26.048 318.14 23.552C315.452 20.96 314.108 17.792 314.108 14.048C314.108 10.208 315.452 7.04 318.14 4.54399C320.924 1.95199 324.476 0.655992 328.796 0.655992C333.02 0.655992 336.476 1.95199 339.164 4.54399C341.948 7.04 343.34 10.208 343.34 14.048C343.34 17.792 341.948 20.96 339.164 23.552C336.476 26.048 333.02 27.296 328.796 27.296ZM341.036 35.648V116H316.412V35.648H341.036ZM353.985 75.824C353.985 67.472 355.665 60.176 359.025 53.936C362.481 47.696 367.233 42.896 373.281 39.536C379.425 36.176 386.433 34.496 394.305 34.496C404.385 34.496 412.785 37.136 419.505 42.416C426.321 47.696 430.785 55.136 432.897 64.736H406.689C404.481 58.592 400.209 55.52 393.873 55.52C389.361 55.52 385.761 57.296 383.073 60.848C380.385 64.304 379.041 69.296 379.041 75.824C379.041 82.352 380.385 87.392 383.073 90.944C385.761 94.4 389.361 96.128 393.873 96.128C400.209 96.128 404.481 93.056 406.689 86.912H432.897C430.785 96.32 426.321 103.712 419.505 109.088C412.689 114.464 404.289 117.152 394.305 117.152C386.433 117.152 379.425 115.472 373.281 112.112C367.233 108.752 362.481 103.952 359.025 97.712C355.665 91.472 353.985 84.176 353.985 75.824Z" fill="white"/>
</svg>
