<svg width="205" height="208" viewBox="0 0 205 208" fill="none" xmlns="http://www.w3.org/2000/svg">
<ellipse cx="102.5" cy="104.033" rx="101.985" ry="103.518" fill="#95D387"/>
<path d="M83.5174 64.8979C73.3649 64.0321 63.5553 72.2807 64.2112 82.4489C65.2644 101.053 80.8846 107.645 90.099 107.645C98.8744 107.645 114.232 101.404 115.987 82.4489C116.643 72.2807 106.833 64.0321 96.6806 64.8979C94.0031 65.1262 91.0352 66.7395 90.099 66.9061C89.1628 66.7395 86.1949 65.1262 83.5174 64.8979Z" fill="#00162B" fill-opacity="0.2"/>
<path fill-rule="evenodd" clip-rule="evenodd" d="M117.737 82.5864L117.734 82.6107C115.871 102.732 99.4894 109.4 90.099 109.4C85.1324 109.4 78.5426 107.64 73.0275 103.417C67.4562 99.1502 63.018 92.3909 62.4593 82.5549C61.7279 71.1438 72.6291 62.2079 83.6665 63.1491C85.2595 63.285 86.8597 63.82 88.0835 64.2841C88.4996 64.4419 88.9081 64.6059 89.257 64.746C89.4179 64.8106 89.566 64.8701 89.6964 64.9215C89.8525 64.9831 89.9855 65.0343 90.099 65.0758C90.2125 65.0343 90.3455 64.9831 90.5016 64.9215C90.632 64.8701 90.7801 64.8106 90.9409 64.746C91.2898 64.6059 91.6984 64.4419 92.1145 64.2841C93.3383 63.82 94.9385 63.285 96.5315 63.1491C107.571 62.2077 118.475 71.1474 117.738 82.5619L117.737 82.5864ZM90.099 66.9061C89.7881 66.8508 89.2531 66.6359 88.5792 66.3652C87.2236 65.8207 85.3057 65.0504 83.5174 64.8979C73.3649 64.0321 63.5553 72.2807 64.2112 82.4489C65.2644 101.053 80.8846 107.645 90.099 107.645C98.8744 107.645 114.232 101.404 115.987 82.4489C116.643 72.2807 106.833 64.0321 96.6806 64.8979C94.8922 65.0504 92.9744 65.8207 91.6188 66.3652C90.9448 66.6359 90.4099 66.8508 90.099 66.9061Z" fill="#00162B" fill-opacity="0.2"/>
<path d="M89.0162 61.6713C87.9051 53.4895 81.3235 54.8058 77.3746 50.418C78.4866 53.1283 85.3164 60.584 89.0162 61.6713Z" fill="#73B40D"/>
<path fill-rule="evenodd" clip-rule="evenodd" d="M90.1962 63.0442C90.6616 62.6442 90.8927 62.0356 90.8101 61.4275C90.4979 59.1283 89.7804 57.3675 88.7237 55.9808C87.6751 54.6047 86.3829 53.7175 85.1263 53.0322C84.5032 52.6925 83.8661 52.3907 83.2702 52.1107C83.2247 52.0894 83.1795 52.0681 83.1344 52.047C82.5758 51.7847 82.0537 51.5396 81.5415 51.272C80.4475 50.7005 79.5053 50.0791 78.7202 49.2067C78.1312 48.5522 77.1567 48.4164 76.4111 48.885C75.6656 49.3535 75.3653 50.2905 75.6995 51.1051C76.0764 52.0238 76.8421 53.1598 77.714 54.2792C78.6163 55.4378 79.7376 56.7108 80.9365 57.9252C82.1338 59.1378 83.434 60.3178 84.6979 61.2773C85.9259 62.2095 87.2585 63.0417 88.5056 63.4082C89.0944 63.5812 89.7308 63.4442 90.1962 63.0442ZM88.5274 59.4884C88.7395 60.1313 88.9051 60.8539 89.0161 61.6712C88.4106 61.4932 87.7213 61.1447 86.9869 60.6743C84.8913 59.3321 82.4288 56.9976 80.5006 54.8028C78.9758 53.0671 77.7852 51.4189 77.3745 50.4179C78.6148 51.796 80.1148 52.6115 81.6235 53.3352C81.8687 53.4529 82.1142 53.5681 82.3588 53.6829C84.9219 54.8861 87.3917 56.0455 88.5274 59.4884Z" fill="#436C02"/>
<path d="M89.6623 64.3041C90.7734 56.1223 97.558 52.1733 101.946 53.0509C95.3642 53.9284 97.1193 62.2651 89.6623 64.3041Z" fill="#73B40D"/>
<path fill-rule="evenodd" clip-rule="evenodd" d="M88.4694 65.6658C88.0123 65.2654 87.7866 64.6625 87.8684 64.0604C89.0938 55.0366 96.7077 50.1568 102.301 51.2755C103.169 51.4491 103.784 52.2248 103.755 53.1095C103.727 53.9942 103.063 54.7284 102.185 54.8454C99.9197 55.1475 99.0961 56.5518 97.7272 59.0989L97.7107 59.1296C96.3953 61.5773 94.6548 64.8159 90.1399 66.0504C89.5538 66.2107 88.9264 66.0662 88.4694 65.6658ZM90.0781 62.2572C89.8998 62.9069 89.7595 63.5893 89.6624 64.304C90.4049 64.101 91.0561 63.8355 91.6333 63.5212C93.9835 62.2412 95.1065 60.1511 96.1721 58.1679C96.7052 57.1758 97.2239 56.2104 97.8747 55.3866C98.8119 54.2001 100.023 53.3071 101.946 53.0508C100.396 52.7408 98.5465 53.0331 96.7539 53.9017C93.9156 55.277 91.2196 58.0968 90.0781 62.2572Z" fill="#436C02"/>
<path fill-rule="evenodd" clip-rule="evenodd" d="M89.6601 49.4854C90.66 49.4854 91.4706 50.2959 91.4706 51.2959V64.4591C91.4706 65.459 90.66 66.2696 89.6601 66.2696C88.6602 66.2696 87.8496 65.459 87.8496 64.4591V51.2959C87.8496 50.2959 88.6602 49.4854 89.6601 49.4854Z" fill="#457003"/>
<path d="M81.7622 63.1428C71.6097 62.277 61.8001 70.5256 62.456 80.6938C63.5092 99.2979 79.1294 105.89 88.3438 105.89C97.1192 105.89 112.477 99.6489 114.232 80.6938C114.888 70.5256 105.078 62.277 94.9254 63.1428C92.2479 63.3711 89.28 64.9844 88.3438 65.151C87.4076 64.9844 84.4397 63.3711 81.7622 63.1428Z" fill="#FF3A1A"/>
<path fill-rule="evenodd" clip-rule="evenodd" d="M116.037 80.8358L116.034 80.8609C114.168 101.019 97.7535 107.7 88.3438 107.7C83.3658 107.7 76.764 105.937 71.2386 101.706C65.6553 97.43 61.2085 90.6562 60.6488 80.8033C59.915 69.353 70.8507 60.3954 81.916 61.339C83.517 61.4755 85.1231 62.0129 86.3479 62.4774C86.7645 62.6353 87.1741 62.7998 87.5232 62.94C87.6839 63.0045 87.8317 63.0638 87.9615 63.1151C88.1088 63.1732 88.2352 63.2219 88.3438 63.2618C88.4523 63.2219 88.5788 63.1732 88.7261 63.1151C88.8559 63.0638 89.0037 63.0045 89.1643 62.94C89.5134 62.7998 89.9231 62.6353 90.3396 62.4774C91.5644 62.0129 93.1705 61.4755 94.7716 61.339C105.839 60.3952 116.777 69.3567 116.038 80.8106L116.037 80.8358ZM88.3438 65.1512C88.0329 65.0958 87.4979 64.881 86.8239 64.6103C85.4684 64.0658 83.5505 63.2955 81.7621 63.143C71.6096 62.2772 61.8001 70.5258 62.456 80.694C63.5091 99.2981 79.1294 105.89 88.3438 105.89C97.1192 105.89 112.476 99.6491 114.232 80.694C114.888 70.5258 105.078 62.2772 94.9254 63.143C93.137 63.2955 91.2191 64.0658 89.8636 64.6103C89.1896 64.881 88.6547 65.0958 88.3438 65.1512Z" fill="#A20505"/>
<path fill-rule="evenodd" clip-rule="evenodd" d="M66.6118 69.212C70.3013 65.1164 75.9761 62.6494 81.7622 63.1428C83.5506 63.2953 85.4685 64.0656 86.824 64.6101C87.498 64.8808 88.0329 65.0957 88.3438 65.151C88.6547 65.0957 89.1897 64.8808 89.8637 64.6101C91.2192 64.0656 93.1371 63.2953 94.9255 63.1428C101.049 62.6206 107.047 65.4138 110.7 69.944C105.938 67.5046 100.209 66.2024 94.9255 66.653C93.1371 66.8055 91.2192 67.5758 89.8637 68.1202C89.1897 68.3909 88.6548 68.6058 88.3439 68.6611C88.033 68.6058 87.498 68.3909 86.824 68.1202C85.4685 67.5758 83.5506 66.8055 81.7622 66.653C76.3006 66.1872 71.0052 67.2009 66.6118 69.212Z" fill="#E83214"/>
<path fill-rule="evenodd" clip-rule="evenodd" d="M70.8584 99.0436C75.5751 102.003 80.8139 103.257 84.8336 103.257C93.609 103.257 108.966 97.0162 110.721 78.0611C111.034 73.2131 108.968 68.8014 105.62 65.606C110.941 68.6989 114.643 74.3191 114.232 80.6938C112.476 99.6489 97.1192 105.89 88.3438 105.89C83.2889 105.89 76.3064 103.906 70.8584 99.0436Z" fill="#E83214"/>
<path d="M89.66 61.1633C95.8028 55.6835 97.5579 61.8265 103.262 62.704C100.38 63.2306 92.5721 63.6911 89.66 61.1633Z" fill="#8ED918"/>
<path fill-rule="evenodd" clip-rule="evenodd" d="M87.8495 61.1755C87.846 60.6552 88.0665 60.1585 88.4548 59.8121C90.1305 58.3173 91.6995 57.4383 93.2852 57.1815C94.9128 56.9179 96.2831 57.3538 97.4356 57.9304C97.9991 58.2123 98.5385 58.5422 99.0322 58.8515C99.1378 58.9176 99.241 58.9826 99.3427 59.0466C99.7362 59.2943 100.107 59.5276 100.5 59.7545C101.464 60.3113 102.421 60.7427 103.537 60.9144C104.411 61.0488 105.06 61.7945 105.072 62.6784C105.085 63.5623 104.457 64.3259 103.587 64.4849C102.01 64.7731 99.198 65.0293 96.3812 64.8872C94.9678 64.8159 93.5003 64.6419 92.1592 64.2982C90.8414 63.9605 89.5016 63.4231 88.4732 62.5305C88.0802 62.1894 87.8531 61.6958 87.8495 61.1755ZM91.1316 60.0106C90.6692 60.3183 90.1803 60.699 89.66 61.1632C90.108 61.5521 90.6718 61.8702 91.3158 62.1283C93.452 62.9844 96.4697 63.1793 99.0636 63.1014C100.771 63.0501 102.294 62.8807 103.262 62.7039C101.798 62.4786 100.594 61.9065 99.5092 61.273C99.1141 61.0423 98.7347 60.8034 98.3644 60.5702C96.1262 59.1606 94.2168 57.9581 91.1316 60.0106Z" fill="#436C02"/>
<path d="M88.3436 61.8264C84.8335 57.4385 80.8844 60.0712 73.4253 60.51C76.4966 62.2651 84.9247 63.6101 88.3436 61.8264Z" fill="#8ED918"/>
<path fill-rule="evenodd" clip-rule="evenodd" d="M90.1152 62.1993C90.2267 61.6697 90.0955 61.1179 89.7573 60.6952C88.7112 59.3874 87.5491 58.5064 86.2099 58.01C84.895 57.5227 83.5526 57.4603 82.2393 57.5519C81.134 57.629 79.9331 57.8272 78.7153 58.0283C78.5168 58.0611 78.3177 58.0939 78.1186 58.1263C76.6601 58.3638 75.0885 58.5983 73.3189 58.7024C72.5191 58.7495 71.8453 59.3166 71.6625 60.0967C71.4797 60.8768 71.8313 61.6842 72.5269 62.0817C74.3733 63.1368 77.5304 63.9498 80.549 64.2939C82.0907 64.4696 83.6773 64.533 85.1354 64.4254C86.5632 64.32 88.0121 64.0412 89.181 63.4313C89.6609 63.181 90.0036 62.729 90.1152 62.1993ZM86.9455 60.4506C87.4235 60.8039 87.8872 61.2557 88.3436 61.8262C87.8226 62.098 87.1854 62.2971 86.4685 62.4332C83.8958 62.9218 80.2975 62.5986 77.3686 61.9082C75.7576 61.5285 74.3491 61.0377 73.4252 60.5098C74.8958 60.4233 76.2299 60.2515 77.4511 60.0651C77.9967 59.9818 78.5197 59.8956 79.0223 59.8127C82.3595 59.2627 84.7958 58.8611 86.9455 60.4506Z" fill="#436C02"/>
<path d="M82.1617 68.5305C83.9653 71.2142 82.164 75.5828 78.1384 78.2881C74.1129 80.9934 69.3875 81.011 67.584 78.3273C65.7804 75.6436 67.5817 71.2749 71.6072 68.5696C75.6328 65.8643 80.3582 65.8468 82.1617 68.5305Z" fill="#FE7B7B"/>
<path fill-rule="evenodd" clip-rule="evenodd" d="M74.6867 70.6617C75.2736 71.4712 75.0932 72.6033 74.2837 73.1903C73.6912 73.6199 73.2455 74.1217 72.9217 74.6992C72.4326 75.5714 71.3292 75.882 70.457 75.393C69.5848 74.904 69.2742 73.8005 69.7632 72.9283C70.3555 71.8721 71.1621 70.981 72.1581 70.2588C72.9676 69.6718 74.0997 69.8522 74.6867 70.6617Z" fill="white"/>
<path d="M104.241 87.9402C103.661 88.7266 102.554 88.8944 101.768 88.315C100.981 87.7356 100.813 86.6284 101.393 85.8419C101.972 85.0555 103.079 84.8877 103.866 85.4671C104.652 86.0465 104.82 87.1537 104.241 87.9402Z" fill="#C5270E"/>
<path d="M107.048 93.7732C106.469 94.5596 105.361 94.7274 104.575 94.148C103.788 93.5686 103.621 92.4614 104.2 91.6749C104.779 90.8885 105.887 90.7207 106.673 91.3001C107.46 91.8795 107.627 92.9867 107.048 93.7732Z" fill="#C5270E"/>
<path d="M109.155 87.7901C108.721 88.3799 107.89 88.5058 107.301 88.0712C106.711 87.6367 106.585 86.8062 107.019 86.2164C107.454 85.6266 108.284 85.5007 108.874 85.9353C109.464 86.3698 109.59 87.2002 109.155 87.7901Z" fill="#C5270E"/>
<path d="M102.587 98.3562C102.008 99.1426 100.9 99.3104 100.114 98.731C99.3275 98.1516 99.1596 97.0444 99.739 96.258C100.318 95.4715 101.426 95.3037 102.212 95.8831C102.999 96.4625 103.166 97.5697 102.587 98.3562Z" fill="#C5270E"/>
<path d="M100.888 92.6101C100.309 93.3965 99.2019 93.5643 98.4154 92.9849C97.629 92.4055 97.4612 91.2983 98.0406 90.5119C98.62 89.7254 99.7272 89.5576 100.514 90.137C101.3 90.7164 101.468 91.8236 100.888 92.6101Z" fill="#C5270E"/>
<path d="M95.9946 100.989C95.4152 101.776 94.3079 101.944 93.5215 101.364C92.7351 100.785 92.5672 99.6777 93.1466 98.8913C93.726 98.1048 94.8333 97.937 95.6197 98.5164C96.4061 99.0958 96.574 100.203 95.9946 100.989Z" fill="#C5270E"/>
<path d="M95.3052 95.4187C94.7258 96.2051 93.6186 96.3729 92.8322 95.7935C92.0457 95.2141 91.8779 94.1069 92.4573 93.3205C93.0367 92.534 94.1439 92.3662 94.9304 92.9456C95.7168 93.525 95.8846 94.6322 95.3052 95.4187Z" fill="#C5270E"/>
<path d="M89.0839 101.934C88.6494 102.523 87.8189 102.649 87.2291 102.215C86.6393 101.78 86.5134 100.95 86.948 100.36C87.3825 99.7701 88.213 99.6443 88.8028 100.079C89.3926 100.513 89.5185 101.344 89.0839 101.934Z" fill="#C5270E"/>
<path d="M119.06 92.8994C108.329 104.453 98.0839 124.882 87.449 114.771C76.8142 104.66 96.7346 93.4303 107.466 81.8762C118.197 70.3222 126.617 66.5592 129.819 69.6031C133.02 72.6471 129.791 81.3453 119.06 92.8994Z" fill="#00162B" fill-opacity="0.2"/>
<path fill-rule="evenodd" clip-rule="evenodd" d="M95.839 119.131C92.4984 119.989 89.2055 119.112 86.1317 116.189C83.057 113.266 82.004 110.007 82.6967 106.598C83.3454 103.407 85.4748 100.37 88.0264 97.5503C90.6088 94.6971 93.8591 91.8209 97.0503 89.0023L97.1639 88.902C100.354 86.0841 103.49 83.315 106.064 80.5434C111.508 74.6815 116.469 70.6802 120.585 68.5352C122.639 67.4646 124.586 66.8023 126.343 66.6709C128.126 66.5375 129.839 66.9517 131.136 68.1848C132.434 69.419 132.946 71.1226 132.921 72.9305C132.896 74.71 132.357 76.7122 131.423 78.8473C129.553 83.1257 125.904 88.3721 120.462 94.2322C118.007 96.8751 115.568 100.006 113.081 103.2C112.92 103.406 112.76 103.612 112.599 103.818C109.975 107.185 107.288 110.598 104.578 113.337C101.898 116.044 98.9807 118.324 95.839 119.131ZM111.585 101.976C114.057 98.8013 116.545 95.6067 119.06 92.8994C129.791 81.3453 133.02 72.6471 129.819 69.6031C126.617 66.5592 118.197 70.3222 107.466 81.8762C104.826 84.7187 101.629 87.5415 98.4689 90.3329C88.7824 98.8879 79.4305 107.147 87.449 114.771C95.5919 122.513 103.506 112.35 111.585 101.976Z" fill="#00162B" fill-opacity="0.2"/>
<path d="M131.372 104.106C118.896 113.699 107.512 132.652 96.8357 118.438C86.1594 104.225 107.257 98.2033 119.733 88.6101C132.21 79.017 138.803 79.4196 142.017 83.6987C145.231 87.9778 143.849 94.513 131.372 104.106Z" fill="#00162B" fill-opacity="0.2"/>
<path fill-rule="evenodd" clip-rule="evenodd" d="M104.932 125.49C101.409 125.398 98.2038 123.477 95.3042 119.616C92.4045 115.756 91.4327 112.117 92.2888 108.658C93.114 105.323 95.5395 102.603 98.3956 100.276C101.273 97.9311 104.872 95.7638 108.411 93.6443C108.497 93.5927 108.583 93.5412 108.669 93.4897C112.173 91.3911 115.629 89.3216 118.569 87.0605C124.899 82.1934 129.975 79.6659 134.055 79.0288C136.126 78.7055 137.988 78.862 139.621 79.494C141.261 80.1285 142.556 81.1985 143.549 82.5211C144.542 83.8437 145.215 85.3924 145.38 87.1605C145.544 88.9215 145.195 90.7786 144.332 92.7108C142.633 96.5179 138.867 100.789 132.536 105.656C129.596 107.917 126.7 110.731 123.763 113.585L123.546 113.795C120.58 116.677 117.553 119.605 114.549 121.782C111.568 123.943 108.328 125.579 104.932 125.49ZM122.468 112.145C125.375 109.319 128.342 106.437 131.372 104.106C143.849 94.513 145.231 87.9778 142.017 83.6987C138.803 79.4196 132.21 79.017 119.733 88.6101C116.702 90.9406 113.163 93.0602 109.693 95.1377C98.8816 101.612 88.753 107.677 96.8357 118.438C104.918 129.199 113.407 120.95 122.468 112.145Z" fill="#00162B" fill-opacity="0.2"/>
<path d="M117.136 90.9531C106.405 102.507 96.1604 122.936 85.5255 112.825C74.8907 102.714 94.8111 91.4841 105.542 79.93C116.273 68.376 124.694 64.613 127.895 67.6569C131.097 70.7009 127.867 79.3991 117.136 90.9531Z" fill="#4CAA1F"/>
<path fill-rule="evenodd" clip-rule="evenodd" d="M93.9155 117.184C90.5749 118.042 87.282 117.166 84.2082 114.243C81.1335 111.32 80.0805 108.06 80.7732 104.652C81.4219 101.461 83.5512 98.4232 86.1029 95.604C88.6853 92.7508 91.9356 89.8746 95.1267 87.056L95.2404 86.9557C98.4309 84.1378 101.566 81.3687 104.14 78.5971C109.585 72.7351 114.545 68.7339 118.661 66.5889C120.716 65.5183 122.662 64.856 124.419 64.7246C126.203 64.5912 127.916 65.0054 129.213 66.2385C130.511 67.4727 131.023 69.1763 130.997 70.9842C130.972 72.7637 130.433 74.7659 129.5 76.901C127.629 81.1794 123.981 86.4258 118.538 92.2859C116.083 94.9288 113.645 98.0598 111.157 101.254C110.997 101.46 110.837 101.666 110.676 101.872C108.052 105.239 105.364 108.652 102.654 111.39C99.9749 114.098 97.0572 116.377 93.9155 117.184ZM109.662 100.03C112.134 96.855 114.622 93.6604 117.136 90.953C127.867 79.399 131.097 70.7008 127.895 67.6568C124.694 64.6129 116.273 68.3759 105.542 79.9299C102.902 82.7724 99.7059 85.5952 96.5454 88.3866C86.8589 96.9416 77.507 105.201 85.5255 112.825C93.6684 120.567 101.583 110.404 109.662 100.03Z" fill="#2B710A"/>
<path fill-rule="evenodd" clip-rule="evenodd" d="M108.056 92.027C110.28 89.1194 112.518 86.1937 114.804 83.7329C121.331 76.7051 124.7 70.7399 125.255 66.6501C126.342 66.687 127.231 67.0255 127.895 67.6569C131.097 70.7009 127.867 79.3991 117.136 90.9531C114.622 93.6605 112.134 96.8551 109.662 100.03C101.583 110.404 93.6685 120.567 85.5256 112.825C81.6912 109.179 81.8289 105.388 84.0757 101.489C84.4808 102.023 84.9622 102.558 85.5256 103.093C93.6685 110.835 100.788 101.528 108.056 92.027Z" fill="#419C15"/>
<path d="M116.73 72.1824C118.082 74.4101 110.186 84.8333 101.821 91.6453C96.6555 95.8521 87.3937 103.323 87.0469 100.113C85.9605 98.8383 96.6882 89.5138 101.34 85.8065C111.439 77.7584 114.715 70.5175 116.73 72.1824Z" fill="#5FCF2A"/>
<path fill-rule="evenodd" clip-rule="evenodd" d="M97.2112 91.9302C97.5868 92.3102 97.5868 92.9264 97.2112 93.3064C95.7571 94.7776 94.5454 95.7289 93.069 96.888C92.5413 97.3024 91.9797 97.7433 91.3611 98.244C90.9463 98.5797 90.341 98.5117 90.0092 98.092C89.6773 97.6723 89.7446 97.0599 90.1594 96.7242C90.83 96.1813 91.4188 95.719 91.9584 95.2953C93.3982 94.1648 94.4883 93.3089 95.851 91.9302C96.2266 91.5502 96.8356 91.5502 97.2112 91.9302Z" fill="#A0EA29"/>
<path d="M129.814 102.292C117.338 111.885 105.954 130.839 95.2774 116.625C84.6011 102.411 105.698 96.3894 118.175 86.7963C130.651 77.2031 137.245 77.6057 140.459 81.8848C143.673 86.1639 142.291 92.6991 129.814 102.292Z" fill="#58C923"/>
<path fill-rule="evenodd" clip-rule="evenodd" d="M103.374 123.676C99.8502 123.584 96.6454 121.663 93.7458 117.802C90.8461 113.942 89.8743 110.303 90.7304 106.844C91.5557 103.509 93.9811 100.789 96.8372 98.4617C99.7144 96.1171 103.314 93.9498 106.852 91.8302C106.938 91.7787 107.024 91.7272 107.11 91.6756C110.615 89.5771 114.07 87.5076 117.011 85.2465C123.341 80.3793 128.416 77.8519 132.497 77.2148C134.568 76.8915 136.43 77.048 138.063 77.68C139.702 78.3145 140.997 79.3845 141.991 80.7071C142.984 82.0297 143.656 83.5784 143.821 85.3465C143.986 87.1075 143.636 88.9646 142.774 90.8968C141.074 94.7038 137.308 98.9745 130.978 103.842C128.037 106.103 125.141 108.917 122.204 111.771L121.988 111.981C119.022 114.863 115.994 117.791 112.991 119.968C110.01 122.129 106.77 123.765 103.374 123.676ZM120.909 110.331C123.817 107.505 126.783 104.623 129.814 102.292C142.291 92.699 143.673 86.1638 140.459 81.8847C137.245 77.6056 130.651 77.203 118.175 86.7961C115.144 89.1265 111.604 91.2462 108.135 93.3237C97.3232 99.7982 87.1946 105.863 95.2774 116.624C103.36 127.385 111.848 119.136 120.909 110.331Z" fill="#2B710A"/>
<path fill-rule="evenodd" clip-rule="evenodd" d="M118.986 106.439C121.893 103.613 124.86 100.73 127.891 98.3998C137.541 90.9796 140.554 85.389 139.936 81.2568C140.12 81.4554 140.294 81.6651 140.459 81.8849C143.673 86.164 142.291 92.6992 129.814 102.292C126.783 104.623 123.817 107.506 120.909 110.331C111.848 119.137 103.36 127.386 95.2774 116.625C94.0098 114.937 93.1901 113.365 92.7507 111.889C92.9392 112.167 93.1401 112.448 93.3537 112.732C101.436 123.493 109.925 115.244 118.986 106.439Z" fill="#4CAA1F"/>
<path d="M126.919 87.4719C128.271 89.6996 110.478 102.35 110.478 102.35C110.478 102.35 95.828 111.12 94.7415 109.845C93.6551 108.57 100.337 101.816 105.668 99.2074C119.706 92.3376 124.905 85.807 126.919 87.4719Z" fill="#79E645"/>
<path fill-rule="evenodd" clip-rule="evenodd" d="M111.786 97.9715C112.103 98.4027 112.015 99.0123 111.588 99.3331C110.389 100.235 108.259 101.468 106.185 102.667C106.028 102.758 105.872 102.848 105.716 102.939C103.429 104.263 101.328 105.499 100.384 106.302C99.9768 106.648 99.3701 106.594 99.0285 106.182C98.687 105.771 98.7398 105.157 99.1467 104.811C100.258 103.867 102.552 102.528 104.76 101.249C104.897 101.17 105.034 101.091 105.17 101.012C107.304 99.7774 109.34 98.5998 110.44 97.7715C110.866 97.4507 111.469 97.5402 111.786 97.9715Z" fill="white"/>
<path d="M111.226 94.0382C111.226 94.7324 110.669 95.2952 109.983 95.2952C109.297 95.2952 108.741 94.7324 108.741 94.0382C108.741 93.344 109.297 92.7812 109.983 92.7812C110.669 92.7812 111.226 93.344 111.226 94.0382Z" fill="#47A21D"/>
<path d="M119.508 90.6864C119.508 91.3806 118.952 91.9434 118.266 91.9434C117.58 91.9434 117.023 91.3806 117.023 90.6864C117.023 89.9922 117.58 89.4294 118.266 89.4294C118.952 89.4294 119.508 89.9922 119.508 90.6864Z" fill="#47A21D"/>
<path d="M124.478 85.6586C124.478 86.3528 123.921 86.9156 123.235 86.9156C122.549 86.9156 121.993 86.3528 121.993 85.6586C121.993 84.9644 122.549 84.4016 123.235 84.4016C123.921 84.4016 124.478 84.9644 124.478 85.6586Z" fill="#47A21D"/>
<path d="M103.771 100.742C103.771 101.436 103.215 101.999 102.529 101.999C101.843 101.999 101.287 101.436 101.287 100.742C101.287 100.048 101.843 99.4851 102.529 99.4851C103.215 99.4851 103.771 100.048 103.771 100.742Z" fill="#47A21D"/>
<path d="M115.367 91.1053C115.367 91.5681 114.996 91.9433 114.539 91.9433C114.081 91.9433 113.71 91.5681 113.71 91.1053C113.71 90.6425 114.081 90.2673 114.539 90.2673C114.996 90.2673 115.367 90.6425 115.367 91.1053Z" fill="#47A21D"/>
<path d="M113.71 95.2955C113.71 95.7583 113.34 96.1335 112.882 96.1335C112.425 96.1335 112.054 95.7583 112.054 95.2955C112.054 94.8327 112.425 94.4575 112.882 94.4575C113.34 94.4575 113.71 94.8327 113.71 95.2955Z" fill="#47A21D"/>
<path d="M121.165 86.9151C121.165 87.3779 120.794 87.7531 120.336 87.7531C119.879 87.7531 119.508 87.3779 119.508 86.9151C119.508 86.4523 119.879 86.0771 120.336 86.0771C120.794 86.0771 121.165 86.4523 121.165 86.9151Z" fill="#47A21D"/>
<path d="M127.791 83.5633C127.791 84.0261 127.42 84.4013 126.962 84.4013C126.505 84.4013 126.134 84.0261 126.134 83.5633C126.134 83.1005 126.505 82.7253 126.962 82.7253C127.42 82.7253 127.791 83.1005 127.791 83.5633Z" fill="#47A21D"/>
<path d="M99.6303 101.999C99.6303 102.462 99.2595 102.837 98.8021 102.837C98.3446 102.837 97.9738 102.462 97.9738 101.999C97.9738 101.536 98.3446 101.161 98.8021 101.161C99.2595 101.161 99.6303 101.536 99.6303 101.999Z" fill="#47A21D"/>
<path d="M105.428 97.8092C105.428 98.272 105.057 98.6472 104.6 98.6472C104.142 98.6472 103.772 98.272 103.772 97.8092C103.772 97.3464 104.142 96.9712 104.6 96.9712C105.057 96.9712 105.428 97.3464 105.428 97.8092Z" fill="#47A21D"/>
<path d="M109.569 96.9711C109.569 97.8968 108.828 98.6471 107.913 98.6471C106.998 98.6471 106.256 97.8968 106.256 96.9711C106.256 96.0455 106.998 95.2952 107.913 95.2952C108.828 95.2952 109.569 96.0455 109.569 96.9711Z" fill="#47A21D"/>
<path d="M116.249 108.189C116.249 108.995 115.603 109.649 114.806 109.649C114.009 109.649 113.363 108.995 113.363 108.189C113.363 107.383 114.009 106.729 114.806 106.729C115.603 106.729 116.249 107.383 116.249 108.189Z" fill="#79E745"/>
<path d="M110.478 117.921C110.478 118.727 109.832 119.38 109.035 119.38C108.238 119.38 107.592 118.727 107.592 117.921C107.592 117.114 108.238 116.461 109.035 116.461C109.832 116.461 110.478 117.114 110.478 117.921Z" fill="#79E745"/>
<path d="M125.867 103.324C125.867 104.13 125.221 104.783 124.424 104.783C123.627 104.783 122.981 104.13 122.981 103.324C122.981 102.518 123.627 101.864 124.424 101.864C125.221 101.864 125.867 102.518 125.867 103.324Z" fill="#79E745"/>
<path d="M136.447 94.5652C136.447 95.3714 135.801 96.0249 135.004 96.0249C134.207 96.0249 133.562 95.3714 133.562 94.5652C133.562 93.759 134.207 93.1055 135.004 93.1055C135.801 93.1055 136.447 93.759 136.447 94.5652Z" fill="#79E745"/>
<path d="M119.134 109.649C119.134 110.187 118.703 110.622 118.172 110.622C117.641 110.622 117.21 110.187 117.21 109.649C117.21 109.112 117.641 108.676 118.172 108.676C118.703 108.676 119.134 109.112 119.134 109.649Z" fill="#79E745"/>
<path d="M128.752 100.891C128.752 101.428 128.322 101.864 127.791 101.864C127.259 101.864 126.829 101.428 126.829 100.891C126.829 100.353 127.259 99.9175 127.791 99.9175C128.322 99.9175 128.752 100.353 128.752 100.891Z" fill="#79E745"/>
<path d="M122.981 105.756C122.981 106.831 122.12 107.703 121.058 107.703C119.995 107.703 119.134 106.831 119.134 105.756C119.134 104.681 119.995 103.81 121.058 103.81C122.12 103.81 122.981 104.681 122.981 105.756Z" fill="#79E745"/>
<path d="M131.638 97.9714C131.638 99.0463 130.777 99.9177 129.714 99.9177C128.652 99.9177 127.791 99.0463 127.791 97.9714C127.791 96.8965 128.652 96.0251 129.714 96.0251C130.777 96.0251 131.638 96.8965 131.638 97.9714Z" fill="#79E745"/>
<path d="M114.325 113.542C114.325 114.617 113.464 115.488 112.401 115.488C111.339 115.488 110.478 114.617 110.478 113.542C110.478 112.467 111.339 111.595 112.401 111.595C113.464 111.595 114.325 112.467 114.325 113.542Z" fill="#79E745"/>
<path d="M50.8682 141.671L44.1934 159.871H39.7609L33.0861 141.671H36.9971L42.0032 156.142L46.9832 141.671H50.8682ZM66.4845 152.335C66.4845 152.857 66.4497 153.326 66.3802 153.743H55.8205C55.9074 154.786 56.2724 155.603 56.9156 156.194C57.5587 156.785 58.3496 157.081 59.2882 157.081C60.6441 157.081 61.6088 156.498 62.1824 155.334H66.1195C65.7023 156.724 64.9027 157.872 63.7207 158.776C62.5387 159.662 61.0873 160.105 59.3665 160.105C57.9759 160.105 56.7244 159.801 55.6119 159.193C54.5168 158.567 53.6564 157.689 53.0306 156.559C52.4222 155.429 52.1181 154.126 52.1181 152.648C52.1181 151.153 52.4222 149.841 53.0306 148.711C53.639 147.581 54.4907 146.712 55.5858 146.104C56.6809 145.495 57.9411 145.191 59.3665 145.191C60.7397 145.191 61.9651 145.487 63.0428 146.078C64.1379 146.669 64.9809 147.512 65.5719 148.607C66.1803 149.685 66.4845 150.927 66.4845 152.335ZM62.7039 151.292C62.6865 150.354 62.3475 149.606 61.687 149.05C61.0265 148.477 60.2182 148.19 59.2622 148.19C58.3583 148.19 57.5935 148.468 56.9677 149.024C56.3593 149.563 55.9856 150.319 55.8466 151.292H62.7039ZM74.8068 145.191C75.8845 145.191 76.8318 145.409 77.6488 145.843C78.4658 146.26 79.1089 146.808 79.5782 147.486V145.426H83.2546V159.975C83.2546 161.313 82.9852 162.504 82.4463 163.547C81.9075 164.607 81.0992 165.442 80.0215 166.05C78.9438 166.676 77.6401 166.989 76.1105 166.989C74.0594 166.989 72.3733 166.511 71.0522 165.555C69.7486 164.599 69.0098 163.295 68.836 161.644H72.4602C72.6514 162.304 73.0599 162.826 73.6857 163.208C74.3288 163.608 75.1023 163.808 76.0062 163.808C77.0665 163.808 77.9269 163.486 78.5875 162.843C79.248 162.217 79.5782 161.261 79.5782 159.975V157.733C79.1089 158.41 78.4571 158.975 77.6227 159.427C76.8058 159.879 75.8671 160.105 74.8068 160.105C73.5901 160.105 72.4776 159.792 71.4694 159.167C70.4612 158.541 69.6617 157.663 69.0707 156.533C68.497 155.386 68.2102 154.074 68.2102 152.596C68.2102 151.136 68.497 149.841 69.0707 148.711C69.6617 147.581 70.4526 146.712 71.4433 146.104C72.4515 145.495 73.5727 145.191 74.8068 145.191ZM79.5782 152.648C79.5782 151.762 79.4044 151.006 79.0568 150.38C78.7091 149.737 78.2398 149.25 77.6488 148.92C77.0578 148.572 76.4234 148.398 75.7455 148.398C75.0675 148.398 74.4418 148.563 73.8682 148.894C73.2946 149.224 72.8252 149.711 72.4602 150.354C72.1126 150.98 71.9387 151.727 71.9387 152.596C71.9387 153.465 72.1126 154.23 72.4602 154.891C72.8252 155.534 73.2946 156.029 73.8682 156.377C74.4592 156.724 75.0849 156.898 75.7455 156.898C76.4234 156.898 77.0578 156.733 77.6488 156.403C78.2398 156.055 78.7091 155.568 79.0568 154.943C79.4044 154.3 79.5782 153.535 79.5782 152.648ZM85.8811 152.596C85.8811 151.136 86.1679 149.841 86.7415 148.711C87.3325 147.581 88.1234 146.712 89.1142 146.104C90.1224 145.495 91.2435 145.191 92.4777 145.191C93.5554 145.191 94.494 145.409 95.2936 145.843C96.1106 146.278 96.7624 146.825 97.2491 147.486V145.426H100.925V159.871H97.2491V157.759C96.7798 158.437 96.1279 159.001 95.2936 159.453C94.4766 159.888 93.5293 160.105 92.4516 160.105C91.2348 160.105 90.1224 159.792 89.1142 159.167C88.1234 158.541 87.3325 157.663 86.7415 156.533C86.1679 155.386 85.8811 154.074 85.8811 152.596ZM97.2491 152.648C97.2491 151.762 97.0753 151.006 96.7276 150.38C96.38 149.737 95.9107 149.25 95.3197 148.92C94.7287 148.572 94.0942 148.398 93.4163 148.398C92.7384 148.398 92.1126 148.563 91.539 148.894C90.9654 149.224 90.4961 149.711 90.131 150.354C89.7834 150.98 89.6096 151.727 89.6096 152.596C89.6096 153.465 89.7834 154.23 90.131 154.891C90.4961 155.534 90.9654 156.029 91.539 156.377C92.13 156.724 92.7558 156.898 93.4163 156.898C94.0942 156.898 94.7287 156.733 95.3197 156.403C95.9107 156.055 96.38 155.568 96.7276 154.943C97.0753 154.3 97.2491 153.535 97.2491 152.648ZM108.741 148.424V155.412C108.741 155.899 108.854 156.255 109.079 156.481C109.323 156.69 109.723 156.794 110.279 156.794H111.974V159.871H109.679C106.603 159.871 105.064 158.376 105.064 155.386V148.424H103.343V145.426H105.064V141.854H108.741V145.426H111.974V148.424H108.741ZM113.66 152.596C113.66 151.136 113.947 149.841 114.521 148.711C115.112 147.581 115.903 146.712 116.894 146.104C117.902 145.495 119.023 145.191 120.257 145.191C121.335 145.191 122.273 145.409 123.073 145.843C123.89 146.278 124.542 146.825 125.028 147.486V145.426H128.705V159.871H125.028V157.759C124.559 158.437 123.907 159.001 123.073 159.453C122.256 159.888 121.309 160.105 120.231 160.105C119.014 160.105 117.902 159.792 116.894 159.167C115.903 158.541 115.112 157.663 114.521 156.533C113.947 155.386 113.66 154.074 113.66 152.596ZM125.028 152.648C125.028 151.762 124.855 151.006 124.507 150.38C124.159 149.737 123.69 149.25 123.099 148.92C122.508 148.572 121.874 148.398 121.196 148.398C120.518 148.398 119.892 148.563 119.318 148.894C118.745 149.224 118.275 149.711 117.91 150.354C117.563 150.98 117.389 151.727 117.389 152.596C117.389 153.465 117.563 154.23 117.91 154.891C118.275 155.534 118.745 156.029 119.318 156.377C119.909 156.724 120.535 156.898 121.196 156.898C121.874 156.898 122.508 156.733 123.099 156.403C123.69 156.055 124.159 155.568 124.507 154.943C124.855 154.3 125.028 153.535 125.028 152.648ZM135.92 147.538C136.39 146.843 137.033 146.278 137.85 145.843C138.684 145.409 139.631 145.191 140.692 145.191C141.926 145.191 143.038 145.495 144.029 146.104C145.037 146.712 145.828 147.581 146.402 148.711C146.993 149.824 147.288 151.119 147.288 152.596C147.288 154.074 146.993 155.386 146.402 156.533C145.828 157.663 145.037 158.541 144.029 159.167C143.038 159.792 141.926 160.105 140.692 160.105C139.614 160.105 138.667 159.897 137.85 159.48C137.05 159.045 136.407 158.489 135.92 157.811V159.871H132.27V140.576H135.92V147.538ZM143.56 152.596C143.56 151.727 143.377 150.98 143.012 150.354C142.665 149.711 142.195 149.224 141.604 148.894C141.031 148.563 140.405 148.398 139.727 148.398C139.066 148.398 138.441 148.572 137.85 148.92C137.276 149.25 136.807 149.737 136.442 150.38C136.094 151.023 135.92 151.779 135.92 152.648C135.92 153.517 136.094 154.274 136.442 154.917C136.807 155.56 137.276 156.055 137.85 156.403C138.441 156.733 139.066 156.898 139.727 156.898C140.405 156.898 141.031 156.724 141.604 156.377C142.195 156.029 142.665 155.534 143.012 154.891C143.377 154.247 143.56 153.483 143.56 152.596ZM153.591 140.576V159.871H149.941V140.576H153.591ZM170.625 152.335C170.625 152.857 170.591 153.326 170.521 153.743H159.961C160.048 154.786 160.413 155.603 161.056 156.194C161.7 156.785 162.49 157.081 163.429 157.081C164.785 157.081 165.75 156.498 166.323 155.334H170.26C169.843 156.724 169.044 157.872 167.862 158.776C166.68 159.662 165.228 160.105 163.507 160.105C162.117 160.105 160.865 159.801 159.753 159.193C158.658 158.567 157.797 157.689 157.171 156.559C156.563 155.429 156.259 154.126 156.259 152.648C156.259 151.153 156.563 149.841 157.171 148.711C157.78 147.581 158.632 146.712 159.727 146.104C160.822 145.495 162.082 145.191 163.507 145.191C164.881 145.191 166.106 145.487 167.184 146.078C168.279 146.669 169.122 147.512 169.713 148.607C170.321 149.685 170.625 150.927 170.625 152.335ZM166.845 151.292C166.827 150.354 166.488 149.606 165.828 149.05C165.167 148.477 164.359 148.19 163.403 148.19C162.499 148.19 161.734 148.468 161.109 149.024C160.5 149.563 160.126 150.319 159.987 151.292H166.845Z" fill="white"/>
<g clip-path="url(#clip0_306_16906)">
<path d="M155.793 33.6064C148.448 33.6064 142.493 39.5609 142.493 46.9056C142.493 54.2504 148.448 60.2048 155.793 60.2048C163.137 60.2048 169.092 54.2504 169.092 46.9056C169.092 39.5609 163.137 33.6064 155.793 33.6064ZM158.009 55.661H153.576V45.0216H158.009V55.661ZM155.793 42.5834C155.205 42.5834 154.641 42.3499 154.225 41.9342C153.81 41.5185 153.576 40.9547 153.576 40.3669C153.576 39.779 153.81 39.2152 154.225 38.7995C154.641 38.3839 155.205 38.1503 155.793 38.1503C156.38 38.1503 156.944 38.3839 157.36 38.7995C157.776 39.2152 158.009 39.779 158.009 40.3669C158.009 40.9547 157.776 41.5185 157.36 41.9342C156.944 42.3499 156.38 42.5834 155.793 42.5834Z" fill="white"/>
</g>
<defs>
<clipPath id="clip0_306_16906">
<rect width="28.3716" height="28.3716" fill="white" transform="translate(141.607 32.72)"/>
</clipPath>
</defs>
</svg>
