<svg width="204" height="208" viewBox="0 0 204 208" fill="none" xmlns="http://www.w3.org/2000/svg">
<ellipse cx="101.985" cy="103.518" rx="101.985" ry="103.518" fill="#F2994A"/>
<path d="M85.1258 142.286L80.0415 160.486H75.7393L72.3237 147.527L68.7516 160.486L64.4755 160.512L59.5736 142.286H63.4847L66.6917 156.418L70.3942 142.286H74.4617L77.9556 156.34L81.1887 142.286H85.1258ZM86.5707 153.211C86.5707 151.751 86.8575 150.456 87.4311 149.326C88.0221 148.196 88.813 147.327 89.8038 146.719C90.812 146.11 91.9332 145.806 93.1673 145.806C94.245 145.806 95.1837 146.023 95.9833 146.458C96.8003 146.893 97.4521 147.44 97.9388 148.101V146.041H101.615V160.486H97.9388V158.374C97.4695 159.052 96.8176 159.616 95.9833 160.068C95.1663 160.503 94.219 160.72 93.1413 160.72C91.9245 160.72 90.812 160.407 89.8038 159.782C88.813 159.156 88.0221 158.278 87.4311 157.148C86.8575 156.001 86.5707 154.689 86.5707 153.211ZM97.9388 153.263C97.9388 152.377 97.765 151.621 97.4173 150.995C97.0697 150.352 96.6004 149.865 96.0094 149.535C95.4184 149.187 94.7839 149.013 94.106 149.013C93.4281 149.013 92.8023 149.178 92.2287 149.509C91.6551 149.839 91.1857 150.326 90.8207 150.969C90.473 151.594 90.2992 152.342 90.2992 153.211C90.2992 154.08 90.473 154.845 90.8207 155.506C91.1857 156.149 91.6551 156.644 92.2287 156.992C92.8197 157.339 93.4454 157.513 94.106 157.513C94.7839 157.513 95.4184 157.348 96.0094 157.018C96.6004 156.67 97.0697 156.183 97.4173 155.558C97.765 154.915 97.9388 154.15 97.9388 153.263ZM108.831 148.283C109.3 147.518 109.908 146.919 110.656 146.484C111.421 146.049 112.29 145.832 113.263 145.832V149.665H112.298C111.151 149.665 110.282 149.934 109.691 150.473C109.118 151.012 108.831 151.951 108.831 153.289V160.486H105.18V146.041H108.831V148.283ZM133.661 145.832C135.434 145.832 136.859 146.38 137.937 147.475C139.032 148.553 139.579 150.065 139.579 152.012V160.486H135.929V152.507C135.929 151.377 135.642 150.517 135.069 149.926C134.495 149.317 133.713 149.013 132.722 149.013C131.731 149.013 130.94 149.317 130.349 149.926C129.776 150.517 129.489 151.377 129.489 152.507V160.486H125.838V152.507C125.838 151.377 125.552 150.517 124.978 149.926C124.404 149.317 123.622 149.013 122.631 149.013C121.623 149.013 120.824 149.317 120.233 149.926C119.659 150.517 119.372 151.377 119.372 152.507V160.486H115.722V146.041H119.372V147.788C119.842 147.179 120.441 146.701 121.171 146.354C121.919 146.006 122.736 145.832 123.622 145.832C124.752 145.832 125.76 146.076 126.647 146.562C127.533 147.032 128.22 147.709 128.707 148.596C129.176 147.762 129.854 147.092 130.74 146.588C131.644 146.084 132.618 145.832 133.661 145.832Z" fill="white"/>
<g clip-path="url(#clip0_339_16925)">
<path d="M95.0641 43.819C95.0641 43.819 95.0641 39.0571 99.8259 39.0571C104.588 39.0571 104.588 43.819 104.588 43.819V48.5809C104.588 48.5809 104.588 53.3427 99.8259 53.3427C95.0641 53.3427 95.0641 48.5809 95.0641 48.5809V43.819ZM137.921 77.1521C137.921 77.1521 142.683 77.1521 142.683 81.9139C142.683 86.6758 137.921 86.6758 137.921 86.6758H133.159C133.159 86.6758 128.397 86.6758 128.397 81.9139C128.397 77.1521 133.159 77.1521 133.159 77.1521H137.921ZM66.4929 77.1521C66.4929 77.1521 71.2547 77.1521 71.2547 81.9139C71.2547 86.6758 66.4929 86.6758 66.4929 86.6758H61.731C61.731 86.6758 56.9691 86.6758 56.9691 81.9139C56.9691 77.1521 61.731 77.1521 61.731 77.1521H66.4929ZM78.6856 56.4213C78.6856 56.4213 82.0523 59.7879 78.6856 63.1546C75.319 66.5212 71.9523 63.1546 71.9523 63.1546L68.5833 59.7903C68.5833 59.7903 65.2167 56.4237 68.5833 53.0546C71.9523 49.688 75.319 53.0546 75.319 53.0546L78.6856 56.4213ZM128.685 106.421C128.685 106.421 132.052 109.788 128.685 113.154C125.319 116.521 121.952 113.154 121.952 113.154L118.585 109.788C118.585 109.788 115.219 106.421 118.585 103.054C121.952 99.6876 125.319 103.054 125.319 103.054L128.685 106.421ZM127.702 63.1546C127.702 63.1546 124.335 66.5212 120.969 63.1546C117.602 59.7879 120.969 56.4213 120.969 56.4213L124.335 53.0546C124.335 53.0546 127.702 49.688 131.069 53.0546C134.435 56.4213 131.069 59.7879 131.069 59.7879L127.702 63.1546ZM77.7023 113.154C77.7023 113.154 74.3356 116.521 70.969 113.154C67.6024 109.788 70.969 106.421 70.969 106.421L74.3356 103.054C74.3356 103.054 77.7023 99.6876 81.0689 103.054C84.4356 106.421 81.0689 109.788 81.0689 109.788L77.7023 113.154ZM95.0641 115.247C95.0641 115.247 95.0641 110.485 99.8259 110.485C104.588 110.485 104.588 115.247 104.588 115.247V120.009C104.588 120.009 104.588 124.771 99.8259 124.771C95.0641 124.771 95.0641 120.009 95.0641 120.009V115.247Z" fill="#EB5757"/>
<path d="M99.8259 105.723C112.975 105.723 123.635 95.0634 123.635 81.9138C123.635 68.7643 112.975 58.1045 99.8259 58.1045C86.6764 58.1045 76.0166 68.7643 76.0166 81.9138C76.0166 95.0634 86.6764 105.723 99.8259 105.723Z" fill="#EB5757"/>
</g>
<g clip-path="url(#clip1_339_16925)">
<path d="M106.016 69.5806L121.683 53.9141C122.124 53.4732 122.474 52.9498 122.712 52.3738C122.951 51.7978 123.073 51.1804 123.073 50.557C123.073 49.9335 122.951 49.3161 122.712 48.7401C122.474 48.1641 122.124 47.6407 121.683 47.1999C121.242 46.759 120.719 46.4093 120.143 46.1707C119.567 45.9321 118.949 45.8093 118.326 45.8093C117.702 45.8093 117.085 45.9321 116.509 46.1707C115.933 46.4093 115.41 46.759 114.969 47.1999L106.016 56.1522V43.8189C106.016 41.1999 103.874 39.0571 101.255 39.0571C98.6355 39.0571 94.1117 38.5808 94.1117 41.1999L96.4926 56.1522L87.5403 47.1999C86.65 46.3095 85.4424 45.8093 84.1832 45.8093C82.9241 45.8093 81.7165 46.3095 80.8261 47.1999C79.9357 48.0902 79.4355 49.2978 79.4355 50.557C79.4355 51.8161 79.9357 53.0237 80.8261 53.9141L96.4926 69.5806V77.152H88.9213L73.2547 61.4855C72.8139 61.0446 72.2905 60.6949 71.7145 60.4563C71.1385 60.2177 70.5211 60.0949 69.8976 60.0949C69.2741 60.0949 68.6568 60.2177 68.0808 60.4563C67.5047 60.6949 66.9814 61.0446 66.5405 61.4855C66.0996 61.9263 65.7499 62.4497 65.5113 63.0257C65.2727 63.6017 65.1499 64.2191 65.1499 64.8426C65.1499 65.4661 65.2727 66.0834 65.5113 66.6594C65.7499 67.2355 66.0996 67.7588 66.5405 68.1997L75.4928 77.152H63.1596C60.5405 77.152 58.3977 79.2948 58.3977 81.9139C58.3977 84.5329 60.5405 86.6757 63.1596 86.6757H75.4928L66.5405 95.6281C65.6501 96.5184 65.1499 97.726 65.1499 98.9852C65.1499 100.244 65.6501 101.452 66.5405 102.342C67.4309 103.233 68.6385 103.733 69.8976 103.733C71.1568 103.733 72.3644 103.233 73.2547 102.342L88.9213 86.6757H96.4926V94.2471L80.8261 109.914C80.3852 110.355 80.0355 110.878 79.7969 111.454C79.5583 112.03 79.4355 112.647 79.4355 113.271C79.4355 113.894 79.5583 114.512 79.7969 115.088C80.0355 115.664 80.3852 116.187 80.8261 116.628C81.267 117.069 81.7903 117.418 82.3664 117.657C82.9424 117.896 83.5597 118.018 84.1832 118.018C84.8067 118.018 85.4241 117.896 86.0001 117.657C86.5761 117.418 87.0995 117.069 87.5403 116.628L96.4926 107.676L93.3974 122.628C93.3974 125.247 98.6355 124.771 101.255 124.771C103.874 124.771 106.016 122.628 106.016 120.009V107.676L114.969 116.628C115.41 117.069 115.933 117.418 116.509 117.657C117.085 117.896 117.702 118.018 118.326 118.018C118.949 118.018 119.567 117.896 120.143 117.657C120.719 117.418 121.242 117.069 121.683 116.628C122.124 116.187 122.474 115.664 122.712 115.088C122.951 114.512 123.073 113.894 123.073 113.271C123.073 112.647 122.951 112.03 122.712 111.454C122.474 110.878 122.124 110.355 121.683 109.914L106.016 94.2471V86.6757H113.588L129.254 102.342C129.695 102.783 130.219 103.133 130.795 103.371C131.371 103.61 131.988 103.733 132.611 103.733C133.235 103.733 133.852 103.61 134.428 103.371C135.004 103.133 135.528 102.783 135.969 102.342C136.409 101.901 136.759 101.378 136.998 100.802C137.236 100.226 137.359 99.6086 137.359 98.9852C137.359 98.3617 137.236 97.7443 136.998 97.1683C136.759 96.5923 136.409 96.0689 135.969 95.6281L127.016 86.6757H139.349C141.968 86.6757 144.111 84.5329 144.111 81.9139C144.111 79.2948 141.968 77.152 139.349 77.152H106.016V69.5806Z" fill="white"/>
<path d="M147.155 34.3721C139.81 34.3721 133.856 40.3266 133.856 47.6713C133.856 55.016 139.81 60.9705 147.155 60.9705C154.5 60.9705 160.454 55.016 160.454 47.6713C160.454 40.3266 154.5 34.3721 147.155 34.3721ZM149.371 56.4266H144.938V45.7872H149.371V56.4266ZM147.155 43.349C146.567 43.349 146.003 43.1155 145.588 42.6998C145.172 42.2841 144.938 41.7204 144.938 41.1325C144.938 40.5446 145.172 39.9809 145.588 39.5652C146.003 39.1495 146.567 38.916 147.155 38.916C147.743 38.916 148.307 39.1495 148.722 39.5652C149.138 39.9809 149.371 40.5446 149.371 41.1325C149.371 41.7204 149.138 42.2841 148.722 42.6998C148.307 43.1155 147.743 43.349 147.155 43.349Z" fill="white"/>
</g>
<defs>
<clipPath id="clip0_339_16925">
<rect width="42.8568" height="85.7136" fill="white" transform="translate(56.9691 39.0571)"/>
</clipPath>
<clipPath id="clip1_339_16925">
<rect width="61.4281" height="114.285" fill="white" transform="translate(99.8259 20.4856)"/>
</clipPath>
</defs>
</svg>
